M48
; DRILL file {KiCad (6.0.7-1)-1} date Sunday, 04 September 2022 at 19:45:24
; FORMAT={-:-/ absolute / inch / decimal}
; #@! TF.CreationDate,2022-09-04T19:45:24+02:00
; #@! TF.GenerationSoftware,Kicad,Pcbnew,(6.0.7-1)-1
; #@! TF.FileFunction,Plated,1,2,PTH
FMAT,2
INCH
; #@! TA.AperFunction,Plated,PTH,ComponentDrill
T1C0.0276
; #@! TA.AperFunction,Plated,PTH,ComponentDrill
T2C0.0315
; #@! TA.AperFunction,Plated,PTH,ComponentDrill
T3C0.0374
; #@! TA.AperFunction,Plated,PTH,ComponentDrill
T4C0.0394
%
G90
G05
T1
X2.2833Y-2.3818
X2.2833Y-2.4818
X2.2833Y-2.5818
X2.2833Y-2.6818
T2
X2.5256Y-2.486
X2.5256Y-2.5844
X2.64Y-1.55
X2.64Y-1.65
X2.64Y-1.75
X2.64Y-1.85
X2.64Y-1.95
X2.64Y-2.05
X2.64Y-2.15
X2.64Y-2.25
X3.14Y-1.55
X3.14Y-1.65
X3.14Y-1.75
X3.14Y-1.85
X3.14Y-1.95
X3.14Y-2.05
X3.14Y-2.15
X3.14Y-2.25
T3
X2.7854Y-2.627
X2.8839Y-2.627
X2.9823Y-2.627
X3.0807Y-2.627
T4
X1.5879Y-1.2505
X1.5879Y-1.3505
X1.5879Y-1.4505
X1.5879Y-1.5505
X1.5879Y-1.6505
X1.5879Y-1.7505
X1.5879Y-1.8505
X1.5879Y-1.9505
X2.4879Y-1.2505
X2.4879Y-1.3505
X2.4879Y-1.4505
X2.4879Y-1.5505
X2.4879Y-1.6505
X2.4879Y-1.7505
X2.4879Y-1.8505
X2.4879Y-1.9505
X2.64Y-1.29
X2.64Y-1.39
X2.79Y-1.29
X2.79Y-1.39
X2.9916Y-1.32
X3.09Y-1.32
T0
M30
