%TF.GenerationSoftware,KiCad,Pcbnew,(6.0.7-1)-1*%
%TF.CreationDate,2022-09-04T19:45:35+02:00*%
%TF.ProjectId,PEQUENA,50455155-454e-4412-9e6b-696361645f70,rev?*%
%TF.SameCoordinates,Original*%
%TF.FileFunction,Legend,Top*%
%TF.FilePolarity,Positive*%
%FSLAX46Y46*%
G04 Gerber Fmt 4.6, Leading zero omitted, Abs format (unit mm)*
G04 Created by KiCad (PCBNEW (6.0.7-1)-1) date 2022-09-04 19:45:35*
%MOMM*%
%LPD*%
G01*
G04 APERTURE LIST*
%ADD10C,0.150000*%
%ADD11C,0.120000*%
G04 APERTURE END LIST*
D10*
X44135714Y-53204761D02*
X44040476Y-53252380D01*
X43850000Y-53252380D01*
X43754761Y-53204761D01*
X43707142Y-53157142D01*
X43659523Y-53061904D01*
X43659523Y-52776190D01*
X43707142Y-52680952D01*
X43754761Y-52633333D01*
X43850000Y-52585714D01*
X44040476Y-52585714D01*
X44135714Y-52633333D01*
X44992857Y-53252380D02*
X44992857Y-52728571D01*
X44945238Y-52633333D01*
X44850000Y-52585714D01*
X44659523Y-52585714D01*
X44564285Y-52633333D01*
X44992857Y-53204761D02*
X44897619Y-53252380D01*
X44659523Y-53252380D01*
X44564285Y-53204761D01*
X44516666Y-53109523D01*
X44516666Y-53014285D01*
X44564285Y-52919047D01*
X44659523Y-52871428D01*
X44897619Y-52871428D01*
X44992857Y-52823809D01*
X45469047Y-53252380D02*
X45469047Y-52585714D01*
X45469047Y-52680952D02*
X45516666Y-52633333D01*
X45611904Y-52585714D01*
X45754761Y-52585714D01*
X45850000Y-52633333D01*
X45897619Y-52728571D01*
X45897619Y-53252380D01*
X45897619Y-52728571D02*
X45945238Y-52633333D01*
X46040476Y-52585714D01*
X46183333Y-52585714D01*
X46278571Y-52633333D01*
X46326190Y-52728571D01*
X46326190Y-53252380D01*
X46945238Y-53252380D02*
X46850000Y-53204761D01*
X46802380Y-53157142D01*
X46754761Y-53061904D01*
X46754761Y-52776190D01*
X46802380Y-52680952D01*
X46850000Y-52633333D01*
X46945238Y-52585714D01*
X47088095Y-52585714D01*
X47183333Y-52633333D01*
X47230952Y-52680952D01*
X47278571Y-52776190D01*
X47278571Y-53061904D01*
X47230952Y-53157142D01*
X47183333Y-53204761D01*
X47088095Y-53252380D01*
X46945238Y-53252380D01*
X47707142Y-53252380D02*
X47707142Y-52585714D01*
X47707142Y-52776190D02*
X47754761Y-52680952D01*
X47802380Y-52633333D01*
X47897619Y-52585714D01*
X47992857Y-52585714D01*
X48326190Y-53252380D02*
X48326190Y-52585714D01*
X48326190Y-52776190D02*
X48373809Y-52680952D01*
X48421428Y-52633333D01*
X48516666Y-52585714D01*
X48611904Y-52585714D01*
X48945238Y-53252380D02*
X48945238Y-52585714D01*
X48945238Y-52252380D02*
X48897619Y-52300000D01*
X48945238Y-52347619D01*
X48992857Y-52300000D01*
X48945238Y-52252380D01*
X48945238Y-52347619D01*
X49373809Y-53204761D02*
X49469047Y-53252380D01*
X49659523Y-53252380D01*
X49754761Y-53204761D01*
X49802380Y-53109523D01*
X49802380Y-53061904D01*
X49754761Y-52966666D01*
X49659523Y-52919047D01*
X49516666Y-52919047D01*
X49421428Y-52871428D01*
X49373809Y-52776190D01*
X49373809Y-52728571D01*
X49421428Y-52633333D01*
X49516666Y-52585714D01*
X49659523Y-52585714D01*
X49754761Y-52633333D01*
X50230952Y-53252380D02*
X50230952Y-52585714D01*
X50230952Y-52680952D02*
X50278571Y-52633333D01*
X50373809Y-52585714D01*
X50516666Y-52585714D01*
X50611904Y-52633333D01*
X50659523Y-52728571D01*
X50659523Y-53252380D01*
X50659523Y-52728571D02*
X50707142Y-52633333D01*
X50802380Y-52585714D01*
X50945238Y-52585714D01*
X51040476Y-52633333D01*
X51088095Y-52728571D01*
X51088095Y-53252380D01*
X51707142Y-53252380D02*
X51611904Y-53204761D01*
X51564285Y-53157142D01*
X51516666Y-53061904D01*
X51516666Y-52776190D01*
X51564285Y-52680952D01*
X51611904Y-52633333D01*
X51707142Y-52585714D01*
X51850000Y-52585714D01*
X51945238Y-52633333D01*
X51992857Y-52680952D01*
X52040476Y-52776190D01*
X52040476Y-53061904D01*
X51992857Y-53157142D01*
X51945238Y-53204761D01*
X51850000Y-53252380D01*
X51707142Y-53252380D01*
%TO.C,G\u002A\u002A\u002A*%
G36*
X54405202Y-43910908D02*
G01*
X53916499Y-43747209D01*
X53426152Y-43611815D01*
X53113828Y-43541100D01*
X53043697Y-43526261D01*
X52965970Y-43509284D01*
X52941839Y-43503887D01*
X52865045Y-43487860D01*
X52783338Y-43472662D01*
X52760798Y-43468881D01*
X52702344Y-43459411D01*
X52621607Y-43446269D01*
X52532037Y-43431645D01*
X52489237Y-43424642D01*
X52390705Y-43409089D01*
X52285203Y-43393365D01*
X52190835Y-43380145D01*
X52163364Y-43376549D01*
X52069618Y-43364587D01*
X51966708Y-43351419D01*
X51882751Y-43340645D01*
X51729391Y-43321716D01*
X51586625Y-43306020D01*
X51448244Y-43293187D01*
X51308038Y-43282849D01*
X51159799Y-43274636D01*
X50997315Y-43268179D01*
X50814378Y-43263109D01*
X50604778Y-43259055D01*
X50479114Y-43257170D01*
X50280601Y-43254680D01*
X50113500Y-43253247D01*
X49973024Y-43252964D01*
X49854390Y-43253921D01*
X49752813Y-43256210D01*
X49663508Y-43259923D01*
X49581691Y-43265149D01*
X49502576Y-43271982D01*
X49456234Y-43276697D01*
X49214797Y-43303443D01*
X49003337Y-43329366D01*
X48815672Y-43355561D01*
X48645622Y-43383117D01*
X48487006Y-43413127D01*
X48333643Y-43446684D01*
X48179353Y-43484878D01*
X48017953Y-43528802D01*
X47999430Y-43534050D01*
X47868501Y-43568050D01*
X47757035Y-43590447D01*
X47669308Y-43600593D01*
X47609596Y-43597844D01*
X47598341Y-43594623D01*
X47536614Y-43557205D01*
X47505580Y-43507231D01*
X47504363Y-43449876D01*
X47532089Y-43390317D01*
X47587882Y-43333731D01*
X47648893Y-43295708D01*
X47706288Y-43262897D01*
X47746946Y-43227441D01*
X47774488Y-43181995D01*
X47792533Y-43119215D01*
X47804702Y-43031756D01*
X47806338Y-43013452D01*
X48163269Y-43013452D01*
X48165132Y-43033374D01*
X48168829Y-43046800D01*
X48172407Y-43054413D01*
X48182535Y-43073770D01*
X48192867Y-43083992D01*
X48211993Y-43085561D01*
X48248504Y-43078961D01*
X48310991Y-43064675D01*
X48319654Y-43062693D01*
X48392402Y-43047930D01*
X48492379Y-43030182D01*
X48610861Y-43010760D01*
X48739123Y-42990974D01*
X48868443Y-42972137D01*
X48990095Y-42955558D01*
X49095357Y-42942550D01*
X49170122Y-42934872D01*
X49251654Y-42927159D01*
X49307645Y-42916885D01*
X49339643Y-42899088D01*
X49349201Y-42868806D01*
X49337870Y-42821077D01*
X49307199Y-42750939D01*
X49258739Y-42653429D01*
X49258333Y-42652622D01*
X49085782Y-42327241D01*
X48909480Y-42030005D01*
X48724501Y-41752871D01*
X48619287Y-41608767D01*
X48553361Y-41525249D01*
X48502560Y-41471286D01*
X48464012Y-41445017D01*
X48434839Y-41444582D01*
X48412168Y-41468120D01*
X48409473Y-41472986D01*
X48392515Y-41517617D01*
X48371685Y-41591860D01*
X48348237Y-41689484D01*
X48323424Y-41804258D01*
X48298499Y-41929950D01*
X48274717Y-42060329D01*
X48253329Y-42189164D01*
X48235590Y-42310223D01*
X48226503Y-42382716D01*
X48207221Y-42551242D01*
X48191849Y-42687489D01*
X48180091Y-42795140D01*
X48171651Y-42877878D01*
X48166232Y-42939387D01*
X48163537Y-42983351D01*
X48163269Y-43013452D01*
X47806338Y-43013452D01*
X47810394Y-42968070D01*
X47828075Y-42788067D01*
X47852805Y-42595650D01*
X47883346Y-42397110D01*
X47918458Y-42198740D01*
X47956904Y-42006831D01*
X47997444Y-41827674D01*
X48038840Y-41667560D01*
X48079852Y-41532781D01*
X48108232Y-41455490D01*
X48173072Y-41313714D01*
X48238800Y-41207252D01*
X48306943Y-41135215D01*
X48379024Y-41096714D01*
X48456569Y-41090861D01*
X48541103Y-41116768D01*
X48615208Y-41160052D01*
X48716904Y-41242304D01*
X48830524Y-41356653D01*
X48954853Y-41501453D01*
X49088677Y-41675058D01*
X49230783Y-41875826D01*
X49379955Y-42102109D01*
X49534980Y-42352265D01*
X49689086Y-42614923D01*
X49736498Y-42697103D01*
X49778740Y-42769023D01*
X49811999Y-42824288D01*
X49832463Y-42856504D01*
X49835707Y-42860924D01*
X49851106Y-42867836D01*
X49886802Y-42873859D01*
X49945485Y-42879147D01*
X50029843Y-42883853D01*
X50142565Y-42888129D01*
X50286340Y-42892128D01*
X50447790Y-42895683D01*
X50855406Y-42907558D01*
X51231115Y-42926297D01*
X51578609Y-42952163D01*
X51901582Y-42985419D01*
X52136208Y-43016276D01*
X52215700Y-43027579D01*
X52310419Y-43040742D01*
X52398717Y-43052761D01*
X52698575Y-43098910D01*
X53023903Y-43159915D01*
X53367859Y-43234303D01*
X53723597Y-43320597D01*
X54064291Y-43411720D01*
X54189068Y-43449142D01*
X54337704Y-43497768D01*
X54500912Y-43554224D01*
X54669406Y-43615135D01*
X54833902Y-43677128D01*
X54985114Y-43736827D01*
X55113755Y-43790858D01*
X55141483Y-43803166D01*
X55223637Y-43840127D01*
X55299157Y-43874071D01*
X55358650Y-43900777D01*
X55388624Y-43914198D01*
X55435592Y-43931769D01*
X55471659Y-43939635D01*
X55473059Y-43939665D01*
X55496619Y-43926330D01*
X55534627Y-43890954D01*
X55579830Y-43840481D01*
X55591246Y-43826515D01*
X55696491Y-43704952D01*
X55825596Y-43571238D01*
X55971402Y-43431899D01*
X56126751Y-43293459D01*
X56284484Y-43162447D01*
X56437442Y-43045387D01*
X56486602Y-43010265D01*
X56644142Y-42906457D01*
X56786726Y-42825688D01*
X56912431Y-42768707D01*
X57019332Y-42736265D01*
X57105506Y-42729114D01*
X57164850Y-42745531D01*
X57213493Y-42784283D01*
X57252747Y-42842325D01*
X57283267Y-42922519D01*
X57305709Y-43027724D01*
X57320727Y-43160800D01*
X57328976Y-43324607D01*
X57331122Y-43471759D01*
X57322698Y-43791165D01*
X57296367Y-44111322D01*
X57253357Y-44421781D01*
X57194897Y-44712094D01*
X57176471Y-44786256D01*
X57151532Y-44887651D01*
X57137864Y-44961367D01*
X57135669Y-45014200D01*
X57145144Y-45052946D01*
X57166491Y-45084398D01*
X57185772Y-45103215D01*
X57258481Y-45179877D01*
X57324559Y-45270937D01*
X57376072Y-45364150D01*
X57403182Y-45438752D01*
X57415526Y-45496124D01*
X57416719Y-45531149D01*
X57405816Y-45556221D01*
X57393038Y-45571683D01*
X57340184Y-45616644D01*
X57288983Y-45629718D01*
X57268710Y-45627051D01*
X57229382Y-45608746D01*
X57165805Y-45566571D01*
X57079733Y-45501849D01*
X56972926Y-45415902D01*
X56847138Y-45310053D01*
X56843265Y-45306734D01*
X56526703Y-45048268D01*
X56211159Y-44817785D01*
X55886758Y-44608740D01*
X55543626Y-44414583D01*
X55340627Y-44310424D01*
X54930481Y-44121576D01*
X55850708Y-44121576D01*
X55862557Y-44142865D01*
X55879223Y-44151733D01*
X55917468Y-44170616D01*
X55956165Y-44194553D01*
X55985582Y-44213739D01*
X56040056Y-44248355D01*
X56113847Y-44294788D01*
X56201216Y-44349427D01*
X56295162Y-44407877D01*
X56395979Y-44471375D01*
X56493992Y-44534785D01*
X56581902Y-44593263D01*
X56652407Y-44641963D01*
X56693451Y-44672246D01*
X56745938Y-44712162D01*
X56787462Y-44741359D01*
X56809908Y-44754169D01*
X56810945Y-44754336D01*
X56828811Y-44740359D01*
X56840073Y-44722666D01*
X56850762Y-44689679D01*
X56866454Y-44623991D01*
X56886519Y-44528665D01*
X56910327Y-44406769D01*
X56937246Y-44261365D01*
X56952458Y-44176389D01*
X56973199Y-44044217D01*
X56990669Y-43903111D01*
X57004654Y-43758348D01*
X57014942Y-43615203D01*
X57021321Y-43478950D01*
X57023578Y-43354865D01*
X57021501Y-43248224D01*
X57014876Y-43164302D01*
X57003492Y-43108374D01*
X56996123Y-43092802D01*
X56973300Y-43065479D01*
X56949784Y-43056100D01*
X56917659Y-43065984D01*
X56869010Y-43096450D01*
X56836638Y-43119365D01*
X56700309Y-43224021D01*
X56550455Y-43350659D01*
X56394899Y-43492015D01*
X56241463Y-43640823D01*
X56097969Y-43789820D01*
X56012675Y-43884543D01*
X55937431Y-43973286D01*
X55886471Y-44040138D01*
X55858121Y-44088451D01*
X55850708Y-44121576D01*
X54930481Y-44121576D01*
X54882998Y-44099713D01*
X54405202Y-43910908D01*
G37*
G36*
X52043328Y-50838691D02*
G01*
X52036834Y-50783117D01*
X52027091Y-50755758D01*
X52025878Y-50754790D01*
X51998608Y-50747510D01*
X51946710Y-50740458D01*
X51885572Y-50735447D01*
X51712980Y-50718640D01*
X51517363Y-50688115D01*
X51308344Y-50645807D01*
X51095546Y-50593655D01*
X50899672Y-50537072D01*
X50760848Y-50492237D01*
X50640659Y-50449630D01*
X50527258Y-50404472D01*
X50408801Y-50351983D01*
X50273441Y-50287384D01*
X50239189Y-50270566D01*
X50144656Y-50224095D01*
X50076876Y-50194149D01*
X50029634Y-50182283D01*
X49996713Y-50190053D01*
X49971897Y-50219014D01*
X49948972Y-50270724D01*
X49921721Y-50346737D01*
X49920436Y-50350350D01*
X49826142Y-50562811D01*
X49702263Y-50756146D01*
X49551032Y-50928508D01*
X49374686Y-51078049D01*
X49175459Y-51202921D01*
X48955586Y-51301275D01*
X48717301Y-51371264D01*
X48674990Y-51380235D01*
X48528317Y-51401818D01*
X48358426Y-51413905D01*
X48177071Y-51416380D01*
X47996004Y-51409122D01*
X47826981Y-51392015D01*
X47805989Y-51388984D01*
X47479157Y-51325093D01*
X47142550Y-51229936D01*
X46794609Y-51102990D01*
X46433774Y-50943728D01*
X46325140Y-50890748D01*
X46039804Y-50742048D01*
X45785570Y-50594911D01*
X45557667Y-50446010D01*
X45351319Y-50292016D01*
X45161755Y-50129601D01*
X44985103Y-49956381D01*
X44765021Y-49701014D01*
X44576822Y-49428500D01*
X44420564Y-49138943D01*
X44327457Y-48909291D01*
X44948895Y-48909291D01*
X44964906Y-49047773D01*
X45013406Y-49192304D01*
X45095092Y-49344491D01*
X45205368Y-49499270D01*
X45409488Y-49731185D01*
X45645006Y-49951790D01*
X45908272Y-50158858D01*
X46195636Y-50350165D01*
X46503446Y-50523486D01*
X46828052Y-50676596D01*
X47165803Y-50807270D01*
X47513048Y-50913283D01*
X47534904Y-50919019D01*
X47609172Y-50939116D01*
X47669592Y-50956957D01*
X47707986Y-50970046D01*
X47717066Y-50974599D01*
X47745593Y-50982236D01*
X47797514Y-50979200D01*
X47862263Y-50967370D01*
X47929270Y-50948629D01*
X47983165Y-50927221D01*
X48098852Y-50853163D01*
X48204508Y-50749917D01*
X48295039Y-50624165D01*
X48365350Y-50482588D01*
X48398575Y-50382340D01*
X48423949Y-50221487D01*
X48420298Y-50044998D01*
X48389145Y-49856672D01*
X48332015Y-49660311D01*
X48250430Y-49459716D01*
X48145913Y-49258687D01*
X48019990Y-49061025D01*
X47874181Y-48870532D01*
X47727869Y-48709026D01*
X47511021Y-48509880D01*
X47283124Y-48344065D01*
X47040535Y-48209470D01*
X46779614Y-48103983D01*
X46585315Y-48046638D01*
X46517867Y-48030799D01*
X46453698Y-48019486D01*
X46384385Y-48011961D01*
X46301506Y-48007487D01*
X46196638Y-48005325D01*
X46107555Y-48004797D01*
X45988209Y-48004981D01*
X45897449Y-48006664D01*
X45827667Y-48010543D01*
X45771249Y-48017319D01*
X45720584Y-48027693D01*
X45668060Y-48042363D01*
X45654954Y-48046406D01*
X45500272Y-48103496D01*
X45372280Y-48171578D01*
X45261899Y-48256043D01*
X45201719Y-48315354D01*
X45086606Y-48461252D01*
X45005876Y-48615626D01*
X44960058Y-48777231D01*
X44948895Y-48909291D01*
X44327457Y-48909291D01*
X44296302Y-48832447D01*
X44213064Y-48547149D01*
X44200769Y-48485255D01*
X44191933Y-48412311D01*
X44186133Y-48321906D01*
X44182945Y-48207627D01*
X44181956Y-48076443D01*
X44182325Y-47948866D01*
X44182492Y-47940056D01*
X44643113Y-47940056D01*
X44643363Y-48022853D01*
X44646184Y-48130755D01*
X44652970Y-48269263D01*
X44663629Y-48378804D01*
X44677764Y-48458104D01*
X44694975Y-48505890D01*
X44714861Y-48520888D01*
X44737025Y-48501823D01*
X44752607Y-48470207D01*
X44830495Y-48300360D01*
X44915757Y-48160554D01*
X45013099Y-48044722D01*
X45127225Y-47946796D01*
X45193300Y-47901861D01*
X45363260Y-47813137D01*
X45556402Y-47744930D01*
X45765205Y-47698571D01*
X45982145Y-47675388D01*
X46199700Y-47676711D01*
X46362685Y-47695229D01*
X46680327Y-47765114D01*
X46981456Y-47866801D01*
X47264740Y-47999384D01*
X47528846Y-48161953D01*
X47772440Y-48353600D01*
X47994191Y-48573416D01*
X48192765Y-48820492D01*
X48335744Y-49040052D01*
X48470375Y-49287646D01*
X48573113Y-49521095D01*
X48644562Y-49742220D01*
X48685325Y-49952844D01*
X48696300Y-50127852D01*
X48688962Y-50310170D01*
X48665780Y-50465636D01*
X48624534Y-50600943D01*
X48563005Y-50722785D01*
X48478974Y-50837855D01*
X48449912Y-50871099D01*
X48404250Y-50923879D01*
X48370048Y-50967833D01*
X48353245Y-50995192D01*
X48352459Y-50998571D01*
X48368454Y-51014624D01*
X48413519Y-51016711D01*
X48483278Y-51004732D01*
X48495191Y-51001820D01*
X48551855Y-50988214D01*
X48622938Y-50972055D01*
X48660228Y-50963902D01*
X48720976Y-50946333D01*
X48800809Y-50917065D01*
X48886673Y-50881066D01*
X48928312Y-50861845D01*
X49097652Y-50761224D01*
X49244804Y-50633141D01*
X49368287Y-50479841D01*
X49466616Y-50303568D01*
X49538311Y-50106563D01*
X49581887Y-49891071D01*
X49584623Y-49868745D01*
X49598752Y-49678539D01*
X49600541Y-49471530D01*
X49590547Y-49261449D01*
X49569330Y-49062032D01*
X49546308Y-48927334D01*
X49461596Y-48596255D01*
X49347292Y-48276538D01*
X49205349Y-47971210D01*
X49037721Y-47683297D01*
X48846363Y-47415828D01*
X48659878Y-47202338D01*
X49294168Y-47202338D01*
X49295267Y-47219623D01*
X49300034Y-47238649D01*
X49311065Y-47264254D01*
X49330957Y-47301275D01*
X49362306Y-47354549D01*
X49407708Y-47428911D01*
X49468742Y-47527556D01*
X49582603Y-47724958D01*
X49689775Y-47937237D01*
X49785681Y-48154065D01*
X49865750Y-48365111D01*
X49924637Y-48557111D01*
X49983422Y-48808543D01*
X50028927Y-49061737D01*
X50058811Y-49302901D01*
X50065439Y-49386316D01*
X50077777Y-49573736D01*
X50152003Y-49627913D01*
X50213884Y-49667486D01*
X50301880Y-49716243D01*
X50408263Y-49770506D01*
X50525301Y-49826598D01*
X50645265Y-49880841D01*
X50760424Y-49929557D01*
X50863047Y-49969069D01*
X50886084Y-49977162D01*
X51140309Y-50056246D01*
X51400466Y-50120337D01*
X51678418Y-50172182D01*
X51819387Y-50193212D01*
X51867352Y-50196573D01*
X51944480Y-50198161D01*
X52043844Y-50198163D01*
X52158520Y-50196766D01*
X52281581Y-50194156D01*
X52406101Y-50190521D01*
X52525155Y-50186047D01*
X52631817Y-50180921D01*
X52719161Y-50175330D01*
X52780261Y-50169461D01*
X52797007Y-50166846D01*
X52952567Y-50133640D01*
X53107407Y-50095627D01*
X53252567Y-50055285D01*
X53379088Y-50015092D01*
X53471616Y-49980253D01*
X53631404Y-49901253D01*
X53791735Y-49801043D01*
X53939250Y-49688613D01*
X54032167Y-49602975D01*
X54181943Y-49425234D01*
X54305604Y-49223723D01*
X54402991Y-48999916D01*
X54473946Y-48755287D01*
X54518312Y-48491309D01*
X54535930Y-48209455D01*
X54526644Y-47911199D01*
X54490294Y-47598015D01*
X54426724Y-47271376D01*
X54335775Y-46932756D01*
X54322776Y-46890627D01*
X54280297Y-46754847D01*
X54117982Y-46689787D01*
X53988021Y-46639877D01*
X53839515Y-46586503D01*
X53679126Y-46531753D01*
X53513516Y-46477713D01*
X53349349Y-46426470D01*
X53193287Y-46380109D01*
X53051993Y-46340718D01*
X52932130Y-46310382D01*
X52851319Y-46293137D01*
X52802665Y-46283824D01*
X52729981Y-46269471D01*
X52644701Y-46252348D01*
X52588810Y-46240989D01*
X52417111Y-46207228D01*
X52251204Y-46177599D01*
X52079848Y-46150283D01*
X51891806Y-46123459D01*
X51737919Y-46103191D01*
X51669958Y-46096330D01*
X51571698Y-46088988D01*
X51449038Y-46081477D01*
X51307878Y-46074112D01*
X51154117Y-46067206D01*
X50993655Y-46061073D01*
X50871430Y-46057138D01*
X50213137Y-46037765D01*
X50115724Y-46096804D01*
X50028915Y-46155740D01*
X49929480Y-46233175D01*
X49828124Y-46319921D01*
X49735553Y-46406788D01*
X49662473Y-46484588D01*
X49658600Y-46489175D01*
X49593719Y-46574353D01*
X49527562Y-46674685D01*
X49463559Y-46783452D01*
X49405145Y-46893938D01*
X49355750Y-46999426D01*
X49318807Y-47093200D01*
X49297749Y-47168541D01*
X49294168Y-47202338D01*
X48659878Y-47202338D01*
X48633227Y-47171828D01*
X48400269Y-46954324D01*
X48152932Y-46768669D01*
X48048635Y-46703980D01*
X47923111Y-46633627D01*
X47788532Y-46563874D01*
X47657070Y-46500982D01*
X47540898Y-46451217D01*
X47521456Y-46443724D01*
X47379837Y-46396484D01*
X47218985Y-46352993D01*
X47049179Y-46315278D01*
X46880697Y-46285368D01*
X46723818Y-46265292D01*
X46588821Y-46257077D01*
X46575193Y-46256985D01*
X46344807Y-46272225D01*
X46107943Y-46316060D01*
X45873567Y-46385663D01*
X45650645Y-46478205D01*
X45448141Y-46590860D01*
X45388223Y-46631329D01*
X45198315Y-46785823D01*
X45035839Y-46960954D01*
X44899505Y-47158654D01*
X44788025Y-47380851D01*
X44700108Y-47629476D01*
X44684986Y-47683480D01*
X44666420Y-47755646D01*
X44653808Y-47816059D01*
X44646317Y-47874327D01*
X44643113Y-47940056D01*
X44182492Y-47940056D01*
X44184198Y-47849773D01*
X44188198Y-47771449D01*
X44194945Y-47706183D01*
X44205061Y-47646259D01*
X44219166Y-47583964D01*
X44222777Y-47569530D01*
X44272713Y-47398536D01*
X44336020Y-47221972D01*
X44406505Y-47056338D01*
X44444474Y-46978973D01*
X44489945Y-46900650D01*
X44551208Y-46807771D01*
X44621808Y-46708980D01*
X44695287Y-46612923D01*
X44765190Y-46528244D01*
X44825060Y-46463587D01*
X44839751Y-46449701D01*
X45031939Y-46294693D01*
X45247809Y-46153139D01*
X45476350Y-46031393D01*
X45706553Y-45935809D01*
X45763578Y-45916583D01*
X45888636Y-45878155D01*
X45994270Y-45850207D01*
X46094630Y-45829666D01*
X46203869Y-45813461D01*
X46279544Y-45804542D01*
X46593087Y-45787601D01*
X46905455Y-45806198D01*
X47217372Y-45860473D01*
X47529561Y-45950568D01*
X47842747Y-46076625D01*
X47957795Y-46131794D01*
X48136351Y-46225602D01*
X48296554Y-46320497D01*
X48450929Y-46424561D01*
X48611999Y-46545874D01*
X48665680Y-46588595D01*
X48736851Y-46645490D01*
X48797391Y-46693210D01*
X48842019Y-46727645D01*
X48865458Y-46744686D01*
X48867608Y-46745795D01*
X48879753Y-46731759D01*
X48907382Y-46693871D01*
X48945974Y-46638455D01*
X48977564Y-46591921D01*
X49035137Y-46512285D01*
X49107663Y-46420588D01*
X49184317Y-46330197D01*
X49232700Y-46276907D01*
X49291109Y-46213497D01*
X49339087Y-46158817D01*
X49371790Y-46118573D01*
X49384374Y-46098473D01*
X49384391Y-46098195D01*
X49371629Y-46088389D01*
X49331967Y-46079153D01*
X49263343Y-46070249D01*
X49163692Y-46061436D01*
X49030952Y-46052475D01*
X48949893Y-46047773D01*
X48536761Y-46008795D01*
X48136065Y-45938811D01*
X47750123Y-45838478D01*
X47381253Y-45708452D01*
X47031771Y-45549389D01*
X46858874Y-45455650D01*
X46670712Y-45336756D01*
X46480926Y-45196743D01*
X46296816Y-45042111D01*
X46125683Y-44879362D01*
X45974825Y-44714995D01*
X45857330Y-44563823D01*
X45682486Y-44284736D01*
X45540995Y-43993970D01*
X45432749Y-43690938D01*
X45357638Y-43375051D01*
X45315554Y-43045721D01*
X45306388Y-42702361D01*
X45307436Y-42686498D01*
X45872493Y-42686498D01*
X45873644Y-42838744D01*
X45877899Y-42983835D01*
X45885264Y-43113125D01*
X45895742Y-43217968D01*
X45898203Y-43235184D01*
X45953188Y-43486199D01*
X46040733Y-43738990D01*
X46158191Y-43986878D01*
X46270504Y-44175018D01*
X46350523Y-44284482D01*
X46453332Y-44406370D01*
X46571478Y-44533195D01*
X46697509Y-44657471D01*
X46823973Y-44771711D01*
X46943416Y-44868429D01*
X47003907Y-44911774D01*
X47272742Y-45073285D01*
X47568710Y-45213668D01*
X47888933Y-45332050D01*
X48230533Y-45427558D01*
X48590630Y-45499319D01*
X48966347Y-45546460D01*
X49139986Y-45559423D01*
X49192592Y-45561769D01*
X49277325Y-45564577D01*
X49390111Y-45567751D01*
X49526874Y-45571195D01*
X49683538Y-45574814D01*
X49856026Y-45578510D01*
X50040264Y-45582189D01*
X50232176Y-45585753D01*
X50327851Y-45587430D01*
X50520152Y-45591003D01*
X50705268Y-45594961D01*
X50879348Y-45599185D01*
X51038542Y-45603559D01*
X51178997Y-45607965D01*
X51296865Y-45612288D01*
X51388295Y-45616410D01*
X51449436Y-45620214D01*
X51468407Y-45622082D01*
X51537301Y-45630702D01*
X51630783Y-45641951D01*
X51737453Y-45654480D01*
X51845909Y-45666935D01*
X51864647Y-45669054D01*
X51992604Y-45685036D01*
X52136448Y-45705563D01*
X52286194Y-45728995D01*
X52431858Y-45753693D01*
X52563456Y-45778017D01*
X52671004Y-45800328D01*
X52688382Y-45804319D01*
X52738606Y-45815878D01*
X52811689Y-45832434D01*
X52895140Y-45851161D01*
X52932787Y-45859554D01*
X53065834Y-45891880D01*
X53226353Y-45935353D01*
X53408094Y-45987944D01*
X53604803Y-46047623D01*
X53810231Y-46112357D01*
X54018125Y-46180118D01*
X54222233Y-46248874D01*
X54416303Y-46316595D01*
X54594085Y-46381250D01*
X54749326Y-46440808D01*
X54851818Y-46482877D01*
X54929617Y-46513906D01*
X55033636Y-46552250D01*
X55155343Y-46595054D01*
X55286207Y-46639465D01*
X55417695Y-46682629D01*
X55541277Y-46721692D01*
X55648420Y-46753799D01*
X55721849Y-46773912D01*
X55854513Y-46806649D01*
X55965627Y-46831532D01*
X56068322Y-46851114D01*
X56175728Y-46867946D01*
X56272987Y-46881035D01*
X56397725Y-46895461D01*
X56503486Y-46903310D01*
X56602904Y-46904617D01*
X56708615Y-46899412D01*
X56833256Y-46887728D01*
X56879473Y-46882596D01*
X57192133Y-46829107D01*
X57494548Y-46741920D01*
X57784640Y-46622612D01*
X58060332Y-46472760D01*
X58319547Y-46293939D01*
X58560208Y-46087728D01*
X58780237Y-45855701D01*
X58977558Y-45599438D01*
X59150093Y-45320513D01*
X59277771Y-45062117D01*
X59385729Y-44774360D01*
X59462894Y-44473705D01*
X59508296Y-44166361D01*
X59520963Y-43858538D01*
X59505680Y-43604923D01*
X59494483Y-43507946D01*
X59483073Y-43427173D01*
X59469395Y-43353700D01*
X59451392Y-43278625D01*
X59427009Y-43193044D01*
X59394189Y-43088055D01*
X59366785Y-43003428D01*
X59309360Y-42835008D01*
X59249196Y-42675309D01*
X59183996Y-42519969D01*
X59111463Y-42364629D01*
X59029299Y-42204928D01*
X58935209Y-42036506D01*
X58826895Y-41855003D01*
X58702060Y-41656057D01*
X58558409Y-41435310D01*
X58473113Y-41306866D01*
X58380390Y-41167876D01*
X58300055Y-41046297D01*
X58230295Y-40938193D01*
X58169299Y-40839627D01*
X58115254Y-40746662D01*
X58066348Y-40655361D01*
X58020769Y-40561786D01*
X57976705Y-40462001D01*
X57932344Y-40352068D01*
X57885874Y-40228051D01*
X57835484Y-40086012D01*
X57779360Y-39922014D01*
X57715691Y-39732120D01*
X57642665Y-39512394D01*
X57630923Y-39477013D01*
X57544509Y-39217528D01*
X57468116Y-38990100D01*
X57400885Y-38792251D01*
X57341956Y-38621502D01*
X57290471Y-38475377D01*
X57245569Y-38351396D01*
X57206393Y-38247083D01*
X57188348Y-38200677D01*
X57099766Y-37983865D01*
X57001993Y-37758438D01*
X56900988Y-37537683D01*
X56802713Y-37334888D01*
X56778180Y-37286422D01*
X56723869Y-37181361D01*
X56682577Y-37104794D01*
X56651605Y-37052595D01*
X56628250Y-37020640D01*
X56609813Y-37004805D01*
X56593594Y-37000966D01*
X56591381Y-37001147D01*
X56558565Y-37014118D01*
X56503296Y-37045835D01*
X56431228Y-37092219D01*
X56348015Y-37149192D01*
X56259312Y-37212673D01*
X56170773Y-37278584D01*
X56088052Y-37342845D01*
X56016803Y-37401378D01*
X55962680Y-37450103D01*
X55947008Y-37466024D01*
X55924574Y-37487543D01*
X55883954Y-37524461D01*
X55838384Y-37564869D01*
X55777305Y-37620047D01*
X55706658Y-37686439D01*
X55630946Y-37759512D01*
X55554674Y-37834732D01*
X55482345Y-37907566D01*
X55418463Y-37973481D01*
X55367532Y-38027942D01*
X55334057Y-38066416D01*
X55322523Y-38084126D01*
X55338300Y-38099875D01*
X55380042Y-38122632D01*
X55439364Y-38147954D01*
X55451688Y-38152598D01*
X55604224Y-38216587D01*
X55735812Y-38290419D01*
X55858377Y-38381842D01*
X55983322Y-38498081D01*
X56136044Y-38674662D01*
X56264752Y-38873096D01*
X56370798Y-39095960D01*
X56455539Y-39345830D01*
X56481968Y-39446480D01*
X56540501Y-39752507D01*
X56568401Y-40060921D01*
X56566233Y-40367759D01*
X56534558Y-40669061D01*
X56473943Y-40960866D01*
X56384949Y-41239213D01*
X56268141Y-41500140D01*
X56164180Y-41679601D01*
X56096303Y-41772810D01*
X56008291Y-41875680D01*
X55908011Y-41980439D01*
X55803332Y-42079317D01*
X55702120Y-42164543D01*
X55612243Y-42228345D01*
X55602844Y-42234043D01*
X55390133Y-42341135D01*
X55174262Y-42412853D01*
X54957348Y-42449349D01*
X54741506Y-42450778D01*
X54528849Y-42417293D01*
X54321493Y-42349048D01*
X54121553Y-42246197D01*
X53935975Y-42112914D01*
X53777806Y-41958488D01*
X53643685Y-41778337D01*
X53534805Y-41574817D01*
X53452357Y-41350284D01*
X53397532Y-41107093D01*
X53385977Y-41025386D01*
X53376790Y-40922474D01*
X53370845Y-40797890D01*
X53370789Y-40795081D01*
X53700932Y-40795081D01*
X53701894Y-40850171D01*
X53709512Y-40925774D01*
X53722758Y-41014572D01*
X53740602Y-41109249D01*
X53762014Y-41202491D01*
X53776194Y-41254871D01*
X53851345Y-41460709D01*
X53949542Y-41638674D01*
X54071040Y-41789028D01*
X54216095Y-41912036D01*
X54384961Y-42007959D01*
X54573689Y-42075909D01*
X54697099Y-42098266D01*
X54838939Y-42105314D01*
X54985012Y-42097440D01*
X55121118Y-42075030D01*
X55177967Y-42059471D01*
X55355128Y-41984143D01*
X55520130Y-41876187D01*
X55671540Y-41737557D01*
X55807926Y-41570207D01*
X55927856Y-41376092D01*
X56029897Y-41157165D01*
X56112618Y-40915382D01*
X56161767Y-40717142D01*
X56203472Y-40456270D01*
X56220286Y-40194019D01*
X56213096Y-39934531D01*
X56182790Y-39681949D01*
X56130256Y-39440417D01*
X56056382Y-39214077D01*
X55962056Y-39007073D01*
X55848166Y-38823548D01*
X55724430Y-38676517D01*
X55587513Y-38557114D01*
X55442196Y-38466984D01*
X55292712Y-38408155D01*
X55143293Y-38382655D01*
X55109491Y-38381718D01*
X55011655Y-38381718D01*
X54764274Y-38621751D01*
X54639620Y-38740955D01*
X54533719Y-38837830D01*
X54440977Y-38916845D01*
X54355798Y-38982471D01*
X54272589Y-39039175D01*
X54185754Y-39091429D01*
X54154395Y-39108984D01*
X54074101Y-39157122D01*
X54014948Y-39204720D01*
X53970066Y-39260545D01*
X53932589Y-39333363D01*
X53895650Y-39431944D01*
X53891268Y-39444903D01*
X53869203Y-39520240D01*
X53864583Y-39565147D01*
X53878026Y-39581256D01*
X53910152Y-39570197D01*
X53933124Y-39555197D01*
X54009615Y-39520011D01*
X54102006Y-39505873D01*
X54196223Y-39513519D01*
X54267320Y-39537741D01*
X54349695Y-39597472D01*
X54422167Y-39683970D01*
X54476906Y-39787857D01*
X54477621Y-39789675D01*
X54492362Y-39849598D01*
X54502416Y-39935386D01*
X54507707Y-40036990D01*
X54508160Y-40144361D01*
X54503698Y-40247452D01*
X54494245Y-40336212D01*
X54482175Y-40393069D01*
X54422440Y-40548324D01*
X54346177Y-40677963D01*
X54255554Y-40779390D01*
X54152738Y-40850007D01*
X54076367Y-40879264D01*
X53976339Y-40890992D01*
X53884138Y-40868658D01*
X53798129Y-40813662D01*
X53751199Y-40779626D01*
X53717739Y-40765532D01*
X53707656Y-40767818D01*
X53700932Y-40795081D01*
X53370789Y-40795081D01*
X53368136Y-40661731D01*
X53368659Y-40524094D01*
X53372408Y-40395076D01*
X53379379Y-40284775D01*
X53386371Y-40222748D01*
X53414578Y-40052931D01*
X53449333Y-39879323D01*
X53487632Y-39715953D01*
X53520605Y-39596026D01*
X53547562Y-39506020D01*
X53562286Y-39445567D01*
X53561634Y-39409170D01*
X53542465Y-39391333D01*
X53501636Y-39386559D01*
X53436004Y-39389352D01*
X53403540Y-39391275D01*
X53323690Y-39394972D01*
X53267543Y-39393730D01*
X53222705Y-39385440D01*
X53176782Y-39367992D01*
X53127453Y-39344295D01*
X53056301Y-39304259D01*
X52987100Y-39257748D01*
X52944165Y-39223018D01*
X52900956Y-39187859D01*
X52865913Y-39167971D01*
X52852599Y-39166248D01*
X52841108Y-39187382D01*
X52828540Y-39238795D01*
X52816137Y-39314629D01*
X52809114Y-39371011D01*
X52766976Y-39684314D01*
X52713679Y-39973616D01*
X52650001Y-40235266D01*
X52576725Y-40465610D01*
X52573143Y-40475374D01*
X52464190Y-40732100D01*
X52335513Y-40967575D01*
X52189211Y-41179249D01*
X52027382Y-41364572D01*
X51852124Y-41520995D01*
X51665535Y-41645965D01*
X51569146Y-41695627D01*
X51448454Y-41745330D01*
X51331512Y-41778189D01*
X51206034Y-41796678D01*
X51059732Y-41803270D01*
X51033738Y-41803386D01*
X50868625Y-41796309D01*
X50721119Y-41772936D01*
X50577661Y-41730058D01*
X50424694Y-41664462D01*
X50403328Y-41654061D01*
X50238685Y-41559221D01*
X50096765Y-41446675D01*
X49975172Y-41313189D01*
X49871511Y-41155525D01*
X49783386Y-40970445D01*
X49708402Y-40754714D01*
X49689877Y-40689986D01*
X49680527Y-40635257D01*
X49673278Y-40551514D01*
X49668135Y-40445889D01*
X49665103Y-40325515D01*
X49664604Y-40255731D01*
X50024648Y-40255731D01*
X50034222Y-40398221D01*
X50072659Y-40622110D01*
X50134330Y-40822067D01*
X50218255Y-40996853D01*
X50323451Y-41145229D01*
X50448940Y-41265957D01*
X50593739Y-41357797D01*
X50756868Y-41419511D01*
X50859872Y-41441071D01*
X50930946Y-41450951D01*
X50989398Y-41455678D01*
X51047971Y-41455275D01*
X51119409Y-41449762D01*
X51194797Y-41441641D01*
X51368042Y-41403939D01*
X51534752Y-41331799D01*
X51693193Y-41226670D01*
X51841628Y-41090003D01*
X51978321Y-40923248D01*
X52101536Y-40727855D01*
X52142803Y-40649704D01*
X52173616Y-40586028D01*
X52196708Y-40533652D01*
X52208081Y-40501791D01*
X52208624Y-40498031D01*
X52195384Y-40486050D01*
X52153213Y-40487381D01*
X52131682Y-40490795D01*
X52051652Y-40501183D01*
X51990164Y-40497682D01*
X51931641Y-40478527D01*
X51903281Y-40464922D01*
X51808258Y-40396770D01*
X51735091Y-40302216D01*
X51684847Y-40184506D01*
X51658592Y-40046883D01*
X51657391Y-39892590D01*
X51673798Y-39766678D01*
X51711497Y-39617686D01*
X51765498Y-39480243D01*
X51832498Y-39359790D01*
X51909190Y-39261769D01*
X51992273Y-39191622D01*
X52037529Y-39167705D01*
X52098601Y-39151482D01*
X52175117Y-39143578D01*
X52252769Y-39144245D01*
X52317248Y-39153734D01*
X52341069Y-39162365D01*
X52379233Y-39187664D01*
X52425870Y-39225863D01*
X52439180Y-39238070D01*
X52476581Y-39268987D01*
X52503306Y-39282962D01*
X52509205Y-39282040D01*
X52514647Y-39260321D01*
X52520576Y-39210292D01*
X52526209Y-39139827D01*
X52530096Y-39071583D01*
X52539528Y-38872585D01*
X52457270Y-38740302D01*
X52375614Y-38599599D01*
X52287833Y-38431161D01*
X52197538Y-38242128D01*
X52137940Y-38108682D01*
X52099767Y-38024931D01*
X52065067Y-37965108D01*
X52026228Y-37923454D01*
X51975636Y-37894211D01*
X51905681Y-37871621D01*
X51808750Y-37849926D01*
X51791106Y-37846331D01*
X51681573Y-37829283D01*
X51582767Y-37827108D01*
X51482102Y-37840865D01*
X51366996Y-37871613D01*
X51323644Y-37885687D01*
X51151691Y-37961158D01*
X50983170Y-38069566D01*
X50820577Y-38207649D01*
X50666408Y-38372149D01*
X50523159Y-38559805D01*
X50393327Y-38767357D01*
X50279408Y-38991546D01*
X50183898Y-39229111D01*
X50111273Y-39468973D01*
X50070903Y-39659310D01*
X50042364Y-39861658D01*
X50026624Y-40064353D01*
X50024648Y-40255731D01*
X49664604Y-40255731D01*
X49664188Y-40197525D01*
X49665393Y-40069052D01*
X49668725Y-39947228D01*
X49674188Y-39839187D01*
X49681787Y-39752061D01*
X49689179Y-39703314D01*
X49769935Y-39365480D01*
X49867760Y-39057593D01*
X49983981Y-38776997D01*
X50119924Y-38521033D01*
X50276915Y-38287044D01*
X50456280Y-38072370D01*
X50551766Y-37974376D01*
X50730506Y-37818524D01*
X50915760Y-37695361D01*
X51113030Y-37601382D01*
X51171510Y-37579701D01*
X51240474Y-37556797D01*
X51300392Y-37540750D01*
X51361211Y-37530059D01*
X51432880Y-37523221D01*
X51525346Y-37518734D01*
X51588560Y-37516727D01*
X51697041Y-37513368D01*
X51773183Y-37508316D01*
X51820820Y-37498273D01*
X51843785Y-37479941D01*
X51845912Y-37450020D01*
X51831034Y-37405212D01*
X51802986Y-37342220D01*
X51799720Y-37335048D01*
X51769078Y-37267561D01*
X51739780Y-37202834D01*
X51724409Y-37168745D01*
X51705993Y-37128640D01*
X51675972Y-37064207D01*
X51638269Y-36983830D01*
X51596806Y-36895890D01*
X51590192Y-36881905D01*
X51551665Y-36800071D01*
X51519420Y-36730818D01*
X51496282Y-36680271D01*
X51485077Y-36654557D01*
X51484462Y-36652633D01*
X51475821Y-36635764D01*
X51451890Y-36592849D01*
X51415662Y-36529098D01*
X51370127Y-36449721D01*
X51318276Y-36359927D01*
X51263101Y-36264926D01*
X51207592Y-36169926D01*
X51194797Y-36148122D01*
X51145645Y-36068174D01*
X51102997Y-36012412D01*
X51061979Y-35980977D01*
X51017712Y-35974014D01*
X50965320Y-35991664D01*
X50899927Y-36034070D01*
X50816656Y-36101376D01*
X50747592Y-36161210D01*
X50559092Y-36332763D01*
X50377532Y-36511333D01*
X50200075Y-36700384D01*
X50023885Y-36903376D01*
X49846128Y-37123772D01*
X49663966Y-37365031D01*
X49474565Y-37630616D01*
X49275088Y-37923988D01*
X49158315Y-38101105D01*
X49017945Y-38315596D01*
X48894131Y-38502882D01*
X48783898Y-38666249D01*
X48684273Y-38808984D01*
X48592282Y-38934370D01*
X48504953Y-39045696D01*
X48419311Y-39146245D01*
X48332383Y-39239305D01*
X48241197Y-39328161D01*
X48142778Y-39416098D01*
X48034153Y-39506403D01*
X47912348Y-39602361D01*
X47774391Y-39707258D01*
X47617307Y-39824381D01*
X47561342Y-39865846D01*
X47463687Y-39938678D01*
X47359053Y-40017603D01*
X47258650Y-40094113D01*
X47173691Y-40159697D01*
X47157591Y-40172282D01*
X47086307Y-40231147D01*
X47001716Y-40305736D01*
X46908932Y-40391051D01*
X46813068Y-40482097D01*
X46719239Y-40573876D01*
X46632556Y-40661394D01*
X46558135Y-40739653D01*
X46501089Y-40803656D01*
X46468215Y-40845852D01*
X46436564Y-40893001D01*
X46393312Y-40957392D01*
X46347064Y-41026217D01*
X46340526Y-41035944D01*
X46183019Y-41302654D01*
X46055654Y-41589015D01*
X45958800Y-41894069D01*
X45898827Y-42178894D01*
X45887613Y-42273295D01*
X45879483Y-42395127D01*
X45874441Y-42535744D01*
X45872493Y-42686498D01*
X45307436Y-42686498D01*
X45330032Y-42344382D01*
X45382178Y-41993478D01*
X45399837Y-41914333D01*
X45426868Y-41812024D01*
X45460067Y-41697342D01*
X45496236Y-41581078D01*
X45532172Y-41474024D01*
X45554020Y-41414148D01*
X45584757Y-41341167D01*
X45628406Y-41247618D01*
X45680757Y-41141583D01*
X45737600Y-41031142D01*
X45794726Y-40924377D01*
X45847926Y-40829368D01*
X45892989Y-40754197D01*
X45915139Y-40720898D01*
X46012588Y-40597001D01*
X46138766Y-40457449D01*
X46291048Y-40304698D01*
X46466810Y-40141206D01*
X46663426Y-39969427D01*
X46878273Y-39791818D01*
X47067071Y-39642886D01*
X47151247Y-39577594D01*
X47231197Y-39515148D01*
X47299824Y-39461122D01*
X47350031Y-39421089D01*
X47364702Y-39409141D01*
X47410319Y-39373342D01*
X47446953Y-39347802D01*
X47458970Y-39341233D01*
X47494754Y-39319400D01*
X47550486Y-39276090D01*
X47621119Y-39216020D01*
X47701606Y-39143908D01*
X47786897Y-39064470D01*
X47871946Y-38982426D01*
X47951705Y-38902492D01*
X48021125Y-38829385D01*
X48075159Y-38767824D01*
X48083388Y-38757674D01*
X48134678Y-38690182D01*
X48202862Y-38595617D01*
X48285528Y-38477542D01*
X48380265Y-38339515D01*
X48484660Y-38185099D01*
X48596303Y-38017854D01*
X48712782Y-37841339D01*
X48831686Y-37659117D01*
X48920407Y-37521775D01*
X48979959Y-37430790D01*
X49048057Y-37329208D01*
X49112962Y-37234474D01*
X49133604Y-37204954D01*
X49182539Y-37135229D01*
X49226576Y-37072013D01*
X49259613Y-37024087D01*
X49271958Y-37005809D01*
X49292183Y-36977641D01*
X49330642Y-36926198D01*
X49383317Y-36856774D01*
X49446193Y-36774660D01*
X49515253Y-36685148D01*
X49519290Y-36679936D01*
X49586950Y-36596067D01*
X49669694Y-36499042D01*
X49763759Y-36392787D01*
X49865377Y-36281232D01*
X49970783Y-36168305D01*
X50076211Y-36057933D01*
X50177895Y-35954044D01*
X50272070Y-35860568D01*
X50354970Y-35781431D01*
X50422829Y-35720562D01*
X50471881Y-35681889D01*
X50482670Y-35675027D01*
X50526375Y-35640029D01*
X50561976Y-35595137D01*
X50578964Y-35554025D01*
X50579259Y-35549351D01*
X50576722Y-35545495D01*
X50565758Y-35539461D01*
X50541333Y-35529279D01*
X50498416Y-35512978D01*
X50431974Y-35488587D01*
X50336975Y-35454135D01*
X50325951Y-35450148D01*
X50287112Y-35436621D01*
X52053458Y-35436621D01*
X52055083Y-35462963D01*
X52066760Y-35515319D01*
X52086458Y-35585569D01*
X52106766Y-35649615D01*
X52133599Y-35735388D01*
X52165285Y-35844726D01*
X52198559Y-35965909D01*
X52230156Y-36087215D01*
X52242618Y-36137334D01*
X52270784Y-36253805D01*
X52294220Y-36354322D01*
X52314787Y-36447898D01*
X52334346Y-36543544D01*
X52354758Y-36650272D01*
X52377883Y-36777095D01*
X52397652Y-36888133D01*
X52414817Y-36983055D01*
X52433837Y-37085037D01*
X52451027Y-37174377D01*
X52453495Y-37186850D01*
X52471346Y-37276680D01*
X52491677Y-37379129D01*
X52509185Y-37467463D01*
X52540576Y-37618380D01*
X52573399Y-37762527D01*
X52606476Y-37895793D01*
X52638631Y-38014065D01*
X52668688Y-38113233D01*
X52695469Y-38189184D01*
X52717799Y-38237807D01*
X52734501Y-38254989D01*
X52734536Y-38254989D01*
X52747348Y-38239581D01*
X52766669Y-38200169D01*
X52779271Y-38168995D01*
X52825277Y-38068215D01*
X52885299Y-37967767D01*
X52954579Y-37873000D01*
X53028359Y-37789263D01*
X53101881Y-37721904D01*
X53170387Y-37676272D01*
X53229120Y-37657716D01*
X53234220Y-37657555D01*
X53268520Y-37668669D01*
X53274903Y-37700522D01*
X53253443Y-37750882D01*
X53230074Y-37785292D01*
X53154662Y-37905384D01*
X53089255Y-38052228D01*
X53053295Y-38156813D01*
X53000950Y-38353578D01*
X52975048Y-38526785D01*
X52975661Y-38677690D01*
X53002863Y-38807547D01*
X53056727Y-38917610D01*
X53100717Y-38973420D01*
X53191131Y-39052508D01*
X53284282Y-39095753D01*
X53381607Y-39103494D01*
X53484545Y-39076073D01*
X53501679Y-39068423D01*
X53615851Y-38996749D01*
X53710545Y-38897779D01*
X53786127Y-38770676D01*
X53842967Y-38614608D01*
X53881431Y-38428740D01*
X53901888Y-38212236D01*
X53904165Y-38155417D01*
X53908195Y-38033274D01*
X53912310Y-37942767D01*
X53917354Y-37879334D01*
X53924175Y-37838411D01*
X53933616Y-37815435D01*
X53946525Y-37805841D01*
X53963747Y-37805068D01*
X53968968Y-37805738D01*
X54013274Y-37829809D01*
X54052119Y-37885672D01*
X54084223Y-37969156D01*
X54108304Y-38076086D01*
X54123082Y-38202291D01*
X54127372Y-38321811D01*
X54129103Y-38400045D01*
X54133544Y-38464079D01*
X54139954Y-38505720D01*
X54145099Y-38517090D01*
X54169447Y-38514028D01*
X54194976Y-38495437D01*
X54236078Y-38447860D01*
X54294208Y-38370685D01*
X54368221Y-38265631D01*
X54456972Y-38134420D01*
X54559314Y-37978768D01*
X54674103Y-37800396D01*
X54800193Y-37601024D01*
X54934682Y-37385205D01*
X55152772Y-37052649D01*
X55379235Y-36745434D01*
X55610850Y-36467779D01*
X55745240Y-36323019D01*
X55818485Y-36244916D01*
X55872844Y-36181738D01*
X55905753Y-36136671D01*
X55914648Y-36112900D01*
X55914571Y-36112682D01*
X55896077Y-36091417D01*
X55853796Y-36054433D01*
X55793881Y-36006376D01*
X55722482Y-35951891D01*
X55645752Y-35895624D01*
X55569843Y-35842219D01*
X55500907Y-35796323D01*
X55470526Y-35777370D01*
X55357641Y-35714067D01*
X55221265Y-35645342D01*
X55072558Y-35576272D01*
X54922682Y-35511935D01*
X54782797Y-35457410D01*
X54716037Y-35434065D01*
X54593029Y-35394529D01*
X54480547Y-35361619D01*
X54365221Y-35331754D01*
X54233684Y-35301352D01*
X54163863Y-35286161D01*
X53977432Y-35253999D01*
X53765993Y-35230856D01*
X53539670Y-35216989D01*
X53308589Y-35212654D01*
X53082873Y-35218108D01*
X52872647Y-35233606D01*
X52742694Y-35250170D01*
X52558409Y-35280922D01*
X52399440Y-35312058D01*
X52267831Y-35343026D01*
X52165629Y-35373270D01*
X52094878Y-35402240D01*
X52057625Y-35429380D01*
X52053458Y-35436621D01*
X50287112Y-35436621D01*
X50261277Y-35427623D01*
X50207364Y-35412157D01*
X50154609Y-35402434D01*
X50093411Y-35397137D01*
X50014167Y-35394948D01*
X49920561Y-35394547D01*
X49805277Y-35395756D01*
X49716647Y-35400011D01*
X49645179Y-35408255D01*
X49581378Y-35421431D01*
X49543036Y-35432033D01*
X49459912Y-35453594D01*
X49405426Y-35459275D01*
X49375559Y-35448836D01*
X49366290Y-35422033D01*
X49366287Y-35421373D01*
X49379481Y-35370328D01*
X49416457Y-35300544D01*
X49473302Y-35216609D01*
X49546107Y-35123111D01*
X49630958Y-35024639D01*
X49723945Y-34925780D01*
X49821156Y-34831121D01*
X49918680Y-34745252D01*
X49991452Y-34688064D01*
X50172647Y-34575427D01*
X50363254Y-34497076D01*
X50560660Y-34453145D01*
X50762248Y-34443769D01*
X50965403Y-34469081D01*
X51167511Y-34529216D01*
X51355064Y-34618101D01*
X51462861Y-34684465D01*
X51566059Y-34757968D01*
X51653453Y-34830306D01*
X51691520Y-34867430D01*
X51739938Y-34907530D01*
X51791241Y-34921844D01*
X51855856Y-34911964D01*
X51895963Y-34898614D01*
X52032026Y-34854880D01*
X52204200Y-34810899D01*
X52412393Y-34766692D01*
X52656508Y-34722282D01*
X52697434Y-34715401D01*
X52878169Y-34692617D01*
X53084847Y-34678934D01*
X53308434Y-34674097D01*
X53539895Y-34677853D01*
X53770196Y-34689946D01*
X53990300Y-34710123D01*
X54191174Y-34738129D01*
X54308696Y-34760749D01*
X54458252Y-34793964D01*
X54573331Y-34820447D01*
X54654986Y-34840445D01*
X54697933Y-34852236D01*
X55022728Y-34960825D01*
X55322718Y-35083523D01*
X55607963Y-35224668D01*
X55757021Y-35308680D01*
X55831071Y-35352588D01*
X55893195Y-35390216D01*
X55936989Y-35417628D01*
X55956052Y-35430894D01*
X55956165Y-35431020D01*
X55974970Y-35447212D01*
X56012737Y-35476483D01*
X56037634Y-35495055D01*
X56084716Y-35531537D01*
X56147915Y-35582902D01*
X56216170Y-35640105D01*
X56241214Y-35661561D01*
X56299798Y-35710453D01*
X56349307Y-35748722D01*
X56382732Y-35771103D01*
X56391816Y-35774733D01*
X56415962Y-35769274D01*
X56466601Y-35754469D01*
X56535959Y-35732677D01*
X56604629Y-35710154D01*
X56820136Y-35654210D01*
X57030773Y-35631014D01*
X57233796Y-35640093D01*
X57426460Y-35680972D01*
X57606019Y-35753178D01*
X57769728Y-35856237D01*
X57851585Y-35925494D01*
X57969134Y-36045316D01*
X58064284Y-36166999D01*
X58147752Y-36304928D01*
X58178522Y-36364364D01*
X58236801Y-36494950D01*
X58289386Y-36639042D01*
X58334002Y-36787967D01*
X58368375Y-36933050D01*
X58390233Y-37065618D01*
X58397303Y-37176996D01*
X58396699Y-37196806D01*
X58392625Y-37256542D01*
X58385645Y-37288188D01*
X58371827Y-37299846D01*
X58347238Y-37299621D01*
X58346829Y-37299576D01*
X58308162Y-37281977D01*
X58256361Y-37239356D01*
X58214895Y-37196340D01*
X58119900Y-37107003D01*
X58001590Y-37021919D01*
X57872649Y-36949206D01*
X57748468Y-36897861D01*
X57679688Y-36879865D01*
X57588584Y-36862211D01*
X57488978Y-36847362D01*
X57425034Y-36840268D01*
X57321693Y-36831286D01*
X57248906Y-36829235D01*
X57204270Y-36838228D01*
X57185382Y-36862375D01*
X57189839Y-36905788D01*
X57215239Y-36972579D01*
X57259177Y-37066859D01*
X57274246Y-37098267D01*
X57343192Y-37244701D01*
X57409642Y-37392008D01*
X57474710Y-37543245D01*
X57539508Y-37701473D01*
X57605151Y-37869748D01*
X57672753Y-38051130D01*
X57743427Y-38248677D01*
X57818287Y-38465447D01*
X57898447Y-38704500D01*
X57985021Y-38968893D01*
X58079121Y-39261685D01*
X58181862Y-39585936D01*
X58193170Y-39621846D01*
X58255539Y-39816930D01*
X58312269Y-39985432D01*
X58366342Y-40133110D01*
X58420737Y-40265718D01*
X58478438Y-40389013D01*
X58542424Y-40508751D01*
X58615677Y-40630688D01*
X58701178Y-40760581D01*
X58801908Y-40904185D01*
X58920849Y-41067257D01*
X58990164Y-41160691D01*
X59102536Y-41320422D01*
X59220932Y-41504495D01*
X59340861Y-41704795D01*
X59457837Y-41913211D01*
X59567370Y-42121627D01*
X59664973Y-42321932D01*
X59746158Y-42506010D01*
X59776318Y-42581860D01*
X59839640Y-42763065D01*
X59898555Y-42960543D01*
X59950778Y-43164579D01*
X59994023Y-43365457D01*
X60026003Y-43553460D01*
X60044432Y-43718873D01*
X60044684Y-43722416D01*
X60048177Y-43802909D01*
X60049637Y-43908034D01*
X60049062Y-44026274D01*
X60046449Y-44146108D01*
X60044784Y-44193122D01*
X60020487Y-44492090D01*
X59970942Y-44772627D01*
X59893790Y-45044355D01*
X59786676Y-45316894D01*
X59749868Y-45397042D01*
X59619639Y-45648819D01*
X59476290Y-45878428D01*
X59313192Y-46095252D01*
X59123712Y-46308674D01*
X59057786Y-46376412D01*
X58846829Y-46576382D01*
X58637857Y-46747614D01*
X58422578Y-46896091D01*
X58192697Y-47027793D01*
X58068892Y-47089604D01*
X57781924Y-47212991D01*
X57497587Y-47306536D01*
X57204653Y-47373850D01*
X57160086Y-47381769D01*
X57075037Y-47392099D01*
X56962197Y-47399650D01*
X56829872Y-47404422D01*
X56686371Y-47406418D01*
X56540004Y-47405639D01*
X56399077Y-47402087D01*
X56271901Y-47395764D01*
X56166783Y-47386671D01*
X56128154Y-47381563D01*
X55915706Y-47340764D01*
X55676300Y-47279737D01*
X55412492Y-47199232D01*
X55126835Y-47099998D01*
X54974668Y-47042846D01*
X54923466Y-47026403D01*
X54886591Y-47020518D01*
X54876384Y-47022962D01*
X54874381Y-47045904D01*
X54882652Y-47091745D01*
X54894576Y-47134650D01*
X54936327Y-47279045D01*
X54978477Y-47446388D01*
X55017943Y-47623586D01*
X55051642Y-47797547D01*
X55054519Y-47813934D01*
X55065370Y-47901309D01*
X55073100Y-48015152D01*
X55077776Y-48147656D01*
X55079465Y-48291013D01*
X55078233Y-48437418D01*
X55074149Y-48579063D01*
X55067278Y-48708142D01*
X55057687Y-48816848D01*
X55045445Y-48897373D01*
X55045221Y-48898422D01*
X55029850Y-48975176D01*
X55023489Y-49023960D01*
X55025764Y-49051776D01*
X55036272Y-49065608D01*
X55064758Y-49072764D01*
X55118902Y-49078190D01*
X55188162Y-49080918D01*
X55204847Y-49081062D01*
X55315313Y-49086651D01*
X55450254Y-49101869D01*
X55599705Y-49125169D01*
X55753699Y-49155005D01*
X55896711Y-49188400D01*
X56181704Y-49277381D01*
X56453294Y-49393763D01*
X56708815Y-49535215D01*
X56945602Y-49699405D01*
X57160989Y-49884001D01*
X57352312Y-50086672D01*
X57516905Y-50305087D01*
X57652103Y-50536914D01*
X57755240Y-50779822D01*
X57771383Y-50828261D01*
X57799403Y-50917200D01*
X57819135Y-50984258D01*
X57833504Y-51041982D01*
X57845435Y-51102918D01*
X57857853Y-51179614D01*
X57866331Y-51235602D01*
X57883395Y-51369501D01*
X57890883Y-51489265D01*
X57888804Y-51608728D01*
X57877169Y-51741722D01*
X57866770Y-51825135D01*
X57822572Y-52074456D01*
X57759151Y-52297149D01*
X57673942Y-52498734D01*
X57564384Y-52684729D01*
X57427915Y-52860654D01*
X57343690Y-52951809D01*
X57156932Y-53119163D01*
X56949052Y-53259309D01*
X56719015Y-53372688D01*
X56465785Y-53459743D01*
X56188329Y-53520917D01*
X55938061Y-53552425D01*
X55767619Y-53564361D01*
X55613620Y-53567697D01*
X55460093Y-53562222D01*
X55291063Y-53547723D01*
X55250107Y-53543290D01*
X54991888Y-53508081D01*
X54752944Y-53460969D01*
X54520643Y-53398713D01*
X54282354Y-53318074D01*
X54109551Y-53250718D01*
X53941598Y-53176071D01*
X53761695Y-53085219D01*
X53578386Y-52983219D01*
X53400211Y-52875128D01*
X53235713Y-52766001D01*
X53093433Y-52660897D01*
X53041411Y-52618368D01*
X52803761Y-52401320D01*
X52597017Y-52180191D01*
X52421935Y-51956273D01*
X52279270Y-51730856D01*
X52169774Y-51505230D01*
X52094204Y-51280686D01*
X52053313Y-51058514D01*
X52046259Y-50926047D01*
X52513065Y-50926047D01*
X52520387Y-51023408D01*
X52537158Y-51128488D01*
X52562945Y-51234607D01*
X52589187Y-51314207D01*
X52663990Y-51479724D01*
X52765999Y-51654030D01*
X52890113Y-51829564D01*
X53031232Y-51998766D01*
X53101102Y-52073054D01*
X53292234Y-52249128D01*
X53512657Y-52418574D01*
X53755544Y-52577315D01*
X54014067Y-52721279D01*
X54281401Y-52846391D01*
X54550717Y-52948577D01*
X54589309Y-52961180D01*
X54704861Y-52994330D01*
X54840667Y-53027314D01*
X54984839Y-53057729D01*
X55125488Y-53083173D01*
X55250726Y-53101242D01*
X55313471Y-53107540D01*
X55403307Y-53111300D01*
X55514791Y-53111292D01*
X55637828Y-53107983D01*
X55762325Y-53101842D01*
X55878186Y-53093336D01*
X55975317Y-53082933D01*
X56028582Y-53074411D01*
X56201380Y-53035497D01*
X56351704Y-52990974D01*
X56493276Y-52936201D01*
X56633986Y-52869510D01*
X56728293Y-52819527D01*
X56802393Y-52774290D01*
X56867962Y-52725283D01*
X56936677Y-52663987D01*
X56998639Y-52603493D01*
X57077951Y-52521634D01*
X57136955Y-52452841D01*
X57183228Y-52387087D01*
X57224350Y-52314340D01*
X57238796Y-52285638D01*
X57290418Y-52174572D01*
X57328579Y-52074966D01*
X57355217Y-51977566D01*
X57372265Y-51873121D01*
X57381659Y-51752377D01*
X57385334Y-51606082D01*
X57385495Y-51584179D01*
X57384480Y-51435447D01*
X57379268Y-51317296D01*
X57369515Y-51224302D01*
X57359009Y-51167785D01*
X57286498Y-50915949D01*
X57189770Y-50687589D01*
X57067198Y-50480755D01*
X56917158Y-50293500D01*
X56738024Y-50123871D01*
X56528170Y-49969921D01*
X56285973Y-49829699D01*
X56212984Y-49793043D01*
X56015698Y-49706137D01*
X55805510Y-49630194D01*
X55590798Y-49567386D01*
X55379935Y-49519887D01*
X55181297Y-49489870D01*
X55004705Y-49479508D01*
X54925378Y-49479868D01*
X54874330Y-49482373D01*
X54843633Y-49489166D01*
X54825358Y-49502387D01*
X54811577Y-49524178D01*
X54807041Y-49532885D01*
X54737440Y-49647507D01*
X54643654Y-49772879D01*
X54532685Y-49901353D01*
X54411536Y-50025281D01*
X54287206Y-50137014D01*
X54175254Y-50223007D01*
X54111989Y-50262521D01*
X54024085Y-50311387D01*
X53920415Y-50365241D01*
X53809848Y-50419721D01*
X53701257Y-50470461D01*
X53603514Y-50513099D01*
X53525488Y-50543271D01*
X53521169Y-50544744D01*
X53341310Y-50599130D01*
X53144777Y-50647757D01*
X52946272Y-50687453D01*
X52760497Y-50715047D01*
X52704113Y-50720992D01*
X52636890Y-50728814D01*
X52582671Y-50738034D01*
X52552759Y-50746715D01*
X52552166Y-50747062D01*
X52528519Y-50781195D01*
X52515631Y-50843083D01*
X52513065Y-50926047D01*
X52046259Y-50926047D01*
X52045688Y-50915330D01*
X52043328Y-50838691D01*
G37*
%TO.C,WEMOS D1*%
G36*
X38427000Y-31762000D02*
G01*
X37792000Y-32397000D01*
X37792000Y-31127000D01*
X38427000Y-31762000D01*
G37*
X38427000Y-31762000D02*
X37792000Y-32397000D01*
X37792000Y-31127000D01*
X38427000Y-31762000D01*
D11*
X40962000Y-23422000D02*
G75*
G03*
X38832000Y-25552000I2J-2130002D01*
G01*
X64692000Y-25552000D02*
G75*
G03*
X62562000Y-23422000I-2130000J0D01*
G01*
X41372000Y-57882000D02*
X64692000Y-57882000D01*
X64692000Y-57882000D02*
X64692000Y-25552000D01*
X41372000Y-50982000D02*
X41372000Y-57882000D01*
X62572000Y-23422000D02*
X40962000Y-23422000D01*
X38832000Y-50982000D02*
X38832000Y-25552000D01*
X38832000Y-50982000D02*
X41372000Y-50982000D01*
%TD*%
M02*
