%TF.GenerationSoftware,KiCad,Pcbnew,(6.0.7-1)-1*%
%TF.CreationDate,2022-09-04T19:45:35+02:00*%
%TF.ProjectId,PEQUENA,50455155-454e-4412-9e6b-696361645f70,rev?*%
%TF.SameCoordinates,Original*%
%TF.FileFunction,Copper,L1,Top*%
%TF.FilePolarity,Positive*%
%FSLAX46Y46*%
G04 Gerber Fmt 4.6, Leading zero omitted, Abs format (unit mm)*
G04 Created by KiCad (PCBNEW (6.0.7-1)-1) date 2022-09-04 19:45:35*
%MOMM*%
%LPD*%
G01*
G04 APERTURE LIST*
G04 Aperture macros list*
%AMRoundRect*
0 Rectangle with rounded corners*
0 $1 Rounding radius*
0 $2 $3 $4 $5 $6 $7 $8 $9 X,Y pos of 4 corners*
0 Add a 4 corners polygon primitive as box body*
4,1,4,$2,$3,$4,$5,$6,$7,$8,$9,$2,$3,0*
0 Add four circle primitives for the rounded corners*
1,1,$1+$1,$2,$3*
1,1,$1+$1,$4,$5*
1,1,$1+$1,$6,$7*
1,1,$1+$1,$8,$9*
0 Add four rect primitives between the rounded corners*
20,1,$1+$1,$2,$3,$4,$5,0*
20,1,$1+$1,$4,$5,$6,$7,0*
20,1,$1+$1,$6,$7,$8,$9,0*
20,1,$1+$1,$8,$9,$2,$3,0*%
G04 Aperture macros list end*
%TA.AperFunction,ComponentPad*%
%ADD10R,1.600000X1.600000*%
%TD*%
%TA.AperFunction,ComponentPad*%
%ADD11C,1.600000*%
%TD*%
%TA.AperFunction,ComponentPad*%
%ADD12R,1.700000X1.700000*%
%TD*%
%TA.AperFunction,ComponentPad*%
%ADD13O,1.700000X1.700000*%
%TD*%
%TA.AperFunction,ComponentPad*%
%ADD14RoundRect,0.250000X0.600000X0.750000X-0.600000X0.750000X-0.600000X-0.750000X0.600000X-0.750000X0*%
%TD*%
%TA.AperFunction,ComponentPad*%
%ADD15O,1.700000X2.000000*%
%TD*%
%TA.AperFunction,ComponentPad*%
%ADD16O,2.000000X1.600000*%
%TD*%
%TA.AperFunction,ComponentPad*%
%ADD17R,2.000000X2.000000*%
%TD*%
%TA.AperFunction,ComponentPad*%
%ADD18RoundRect,0.250000X-0.600000X-0.725000X0.600000X-0.725000X0.600000X0.725000X-0.600000X0.725000X0*%
%TD*%
%TA.AperFunction,ComponentPad*%
%ADD19O,1.700000X1.950000*%
%TD*%
%TA.AperFunction,ComponentPad*%
%ADD20O,1.600000X1.600000*%
%TD*%
%TA.AperFunction,ComponentPad*%
%ADD21R,1.930400X1.930400*%
%TD*%
%TA.AperFunction,Conductor*%
%ADD22C,0.500000*%
%TD*%
%TA.AperFunction,Conductor*%
%ADD23C,0.250000*%
%TD*%
G04 APERTURE END LIST*
D10*
%TO.P,35V100mf,1*%
%TO.N,N/C*%
X64150000Y-63144888D03*
D11*
%TO.P,35V100mf,2*%
X64150000Y-65644888D03*
%TD*%
D12*
%TO.P,J2,1*%
%TO.N,N/C*%
X67056000Y-32766000D03*
D13*
%TO.P,J2,2*%
X67056000Y-35306000D03*
%TD*%
D14*
%TO.P,- 24V +,1*%
%TO.N,N/C*%
X78486000Y-33528000D03*
D15*
%TO.P,- 24V +,2*%
X75986000Y-33528000D03*
%TD*%
D16*
%TO.P,WEMOS D1,16*%
%TO.N,N/C*%
X63192000Y-31762000D03*
%TO.P,WEMOS D1,15*%
X63192000Y-34302000D03*
%TO.P,WEMOS D1,14*%
X63192000Y-36842000D03*
%TO.P,WEMOS D1,13*%
X63192000Y-39382000D03*
%TO.P,WEMOS D1,12*%
X63192000Y-41922000D03*
%TO.P,WEMOS D1,11*%
X63192000Y-44462000D03*
%TO.P,WEMOS D1,10*%
X63192000Y-47002000D03*
%TO.P,WEMOS D1,9*%
X63192000Y-49542000D03*
%TO.P,WEMOS D1,8*%
X40332000Y-49542000D03*
%TO.P,WEMOS D1,7*%
X40332000Y-47002000D03*
%TO.P,WEMOS D1,6*%
X40332000Y-44462000D03*
%TO.P,WEMOS D1,5*%
X40332000Y-41922000D03*
%TO.P,WEMOS D1,4*%
X40332000Y-39382000D03*
%TO.P,WEMOS D1,3*%
X40332000Y-36842000D03*
%TO.P,WEMOS D1,2*%
X40332000Y-34302000D03*
D17*
%TO.P,WEMOS D1,1*%
X40332000Y-31762000D03*
%TD*%
D18*
%TO.P,MOTOR,1*%
%TO.N,N/C*%
X70750000Y-66725000D03*
D19*
%TO.P,MOTOR,2*%
X73250000Y-66725000D03*
%TO.P,MOTOR,3*%
X75750000Y-66725000D03*
%TO.P,MOTOR,4*%
X78250000Y-66725000D03*
%TD*%
D10*
%TO.P,DRIVER,1*%
%TO.N,N/C*%
X67056000Y-57150000D03*
D20*
%TO.P,DRIVER,2*%
X67056000Y-54610000D03*
%TO.P,DRIVER,3*%
X67056000Y-52070000D03*
%TO.P,DRIVER,4*%
X67056000Y-49530000D03*
%TO.P,DRIVER,5*%
X67056000Y-46990000D03*
%TO.P,DRIVER,6*%
X67056000Y-44450000D03*
%TO.P,DRIVER,7*%
X67056000Y-41910000D03*
%TO.P,DRIVER,8*%
X67056000Y-39370000D03*
%TO.P,DRIVER,9*%
X79756000Y-39370000D03*
%TO.P,DRIVER,10*%
X79756000Y-41910000D03*
%TO.P,DRIVER,11*%
X79756000Y-44450000D03*
%TO.P,DRIVER,12*%
X79756000Y-46990000D03*
%TO.P,DRIVER,13*%
X79756000Y-49530000D03*
%TO.P,DRIVER,14*%
X79756000Y-52070000D03*
%TO.P,DRIVER,15*%
X79756000Y-54610000D03*
%TO.P,DRIVER,16*%
X79756000Y-57150000D03*
%TD*%
D21*
%TO.P,WEMOS D1,EN*%
%TO.N,N/C*%
X57996750Y-60496750D03*
%TO.P,WEMOS D1,GND*%
X57996750Y-65576750D03*
%TO.P,WEMOS D1,IN+*%
X57996750Y-63036750D03*
%TO.P,WEMOS D1,VO+*%
X57996750Y-68116750D03*
%TD*%
D12*
%TO.P,J1,1*%
%TO.N,N/C*%
X70866000Y-32766000D03*
D13*
%TO.P,J1,2*%
X70866000Y-35306000D03*
%TD*%
D22*
%TO.N,*%
X57996750Y-68116750D02*
X60983250Y-68116750D01*
X60983250Y-68116750D02*
X61283250Y-68116750D01*
X73660000Y-56642000D02*
X70750000Y-59552000D01*
X70750000Y-59552000D02*
X70750000Y-66725000D01*
X74930000Y-57912000D02*
X73250000Y-59592000D01*
X73250000Y-59592000D02*
X73250000Y-66725000D01*
X76454000Y-58166000D02*
X75750000Y-58870000D01*
X75750000Y-58870000D02*
X75750000Y-66725000D01*
X77724000Y-59436000D02*
X78250000Y-59962000D01*
X78250000Y-59962000D02*
X78250000Y-66725000D01*
X77724000Y-59436000D02*
X77724000Y-53340000D01*
X61300000Y-68100000D02*
X61300000Y-59700000D01*
D23*
X63140000Y-59650000D02*
X63192000Y-59702000D01*
D22*
X61310000Y-59700000D02*
X63100000Y-59700000D01*
X68272000Y-57162000D02*
X67012000Y-57162000D01*
X63192000Y-44462000D02*
X63192000Y-41922000D01*
X75946000Y-46990000D02*
X75958000Y-47002000D01*
X76454000Y-50546000D02*
X77458000Y-49542000D01*
X77458000Y-49542000D02*
X79712000Y-49542000D01*
X68272000Y-57162000D02*
X70812000Y-54622000D01*
X79700000Y-52070000D02*
X79712000Y-52082000D01*
X63192000Y-57162000D02*
X63192000Y-59702000D01*
X74930000Y-48006000D02*
X75946000Y-46990000D01*
X63192000Y-59702000D02*
X68060000Y-59702000D01*
X74930000Y-57912000D02*
X74930000Y-48006000D01*
X72390000Y-43434000D02*
X73902000Y-41922000D01*
X73902000Y-41922000D02*
X79712000Y-41922000D01*
X75958000Y-47002000D02*
X79712000Y-47002000D01*
X70812000Y-39382000D02*
X68272000Y-36842000D01*
X63192000Y-39382000D02*
X67012000Y-39382000D01*
X63192000Y-41922000D02*
X67012000Y-41922000D01*
X79712000Y-44462000D02*
X75172000Y-44462000D01*
X73660000Y-45974000D02*
X73660000Y-56642000D01*
X67012000Y-54622000D02*
X65732000Y-54622000D01*
X70812000Y-54622000D02*
X70812000Y-39382000D01*
X65732000Y-54622000D02*
X63192000Y-57162000D01*
X76454000Y-58166000D02*
X76454000Y-50546000D01*
X75172000Y-44462000D02*
X73660000Y-45974000D01*
X68060000Y-59702000D02*
X72390000Y-55372000D01*
X77724000Y-53340000D02*
X78994000Y-52070000D01*
X68272000Y-36842000D02*
X63192000Y-36842000D01*
X78994000Y-52070000D02*
X79700000Y-52070000D01*
X72390000Y-55372000D02*
X72390000Y-43434000D01*
X63192000Y-49542000D02*
X63192000Y-57162000D01*
X67066000Y-44450000D02*
X67066000Y-46990000D01*
%TD*%
M02*
