%TF.GenerationSoftware,KiCad,Pcbnew,(6.0.7-1)-1*%
%TF.CreationDate,2022-09-04T19:45:29+02:00*%
%TF.ProjectId,PEQUENA,50455155-454e-4412-9e6b-696361645f70,rev?*%
%TF.SameCoordinates,Original*%
%TF.FileFunction,Drillmap*%
%TF.FilePolarity,Positive*%
%FSLAX45Y45*%
G04 Gerber Fmt 4.5, Leading zero omitted, Abs format (unit mm)*
G04 Created by KiCad (PCBNEW (6.0.7-1)-1) date 2022-09-04 19:45:29*
%MOMM*%
%LPD*%
G01*
G04 APERTURE LIST*
%ADD10C,0.050000*%
%ADD11C,0.200000*%
%ADD12C,0.120000*%
G04 APERTURE END LIST*
D10*
X8097200Y-4573200D02*
X8097200Y-4446200D01*
X3835400Y-2971800D02*
X8178800Y-2971800D01*
X8178800Y-2971800D02*
X8178800Y-7010400D01*
X8178800Y-7010400D02*
X3835400Y-7010400D01*
X3835400Y-7010400D02*
X3835400Y-2971800D01*
D11*
D12*
X6855000Y-6412500D02*
X6975000Y-6532500D01*
X6975000Y-6412500D02*
X6855000Y-6532500D01*
X7948600Y-3492800D02*
X8068600Y-3612800D01*
X8068600Y-3492800D02*
X7948600Y-3612800D01*
D11*
X4090519Y-7323376D02*
X4090519Y-7123376D01*
X4138138Y-7123376D01*
X4166709Y-7132900D01*
X4185757Y-7151948D01*
X4195281Y-7170995D01*
X4204805Y-7209090D01*
X4204805Y-7237662D01*
X4195281Y-7275757D01*
X4185757Y-7294805D01*
X4166709Y-7313852D01*
X4138138Y-7323376D01*
X4090519Y-7323376D01*
X4290519Y-7323376D02*
X4290519Y-7190043D01*
X4290519Y-7228138D02*
X4300043Y-7209090D01*
X4309567Y-7199567D01*
X4328614Y-7190043D01*
X4347662Y-7190043D01*
X4414329Y-7323376D02*
X4414329Y-7190043D01*
X4414329Y-7123376D02*
X4404805Y-7132900D01*
X4414329Y-7142424D01*
X4423852Y-7132900D01*
X4414329Y-7123376D01*
X4414329Y-7142424D01*
X4538138Y-7323376D02*
X4519090Y-7313852D01*
X4509567Y-7294805D01*
X4509567Y-7123376D01*
X4642900Y-7323376D02*
X4623852Y-7313852D01*
X4614329Y-7294805D01*
X4614329Y-7123376D01*
X4871471Y-7323376D02*
X4871471Y-7123376D01*
X4938138Y-7266233D01*
X5004805Y-7123376D01*
X5004805Y-7323376D01*
X5185757Y-7323376D02*
X5185757Y-7218614D01*
X5176233Y-7199567D01*
X5157186Y-7190043D01*
X5119090Y-7190043D01*
X5100043Y-7199567D01*
X5185757Y-7313852D02*
X5166710Y-7323376D01*
X5119090Y-7323376D01*
X5100043Y-7313852D01*
X5090519Y-7294805D01*
X5090519Y-7275757D01*
X5100043Y-7256709D01*
X5119090Y-7247186D01*
X5166710Y-7247186D01*
X5185757Y-7237662D01*
X5280995Y-7190043D02*
X5280995Y-7390043D01*
X5280995Y-7199567D02*
X5300043Y-7190043D01*
X5338138Y-7190043D01*
X5357186Y-7199567D01*
X5366710Y-7209090D01*
X5376233Y-7228138D01*
X5376233Y-7285281D01*
X5366710Y-7304328D01*
X5357186Y-7313852D01*
X5338138Y-7323376D01*
X5300043Y-7323376D01*
X5280995Y-7313852D01*
X5461948Y-7304328D02*
X5471471Y-7313852D01*
X5461948Y-7323376D01*
X5452424Y-7313852D01*
X5461948Y-7304328D01*
X5461948Y-7323376D01*
X5461948Y-7199567D02*
X5471471Y-7209090D01*
X5461948Y-7218614D01*
X5452424Y-7209090D01*
X5461948Y-7199567D01*
X5461948Y-7218614D01*
D12*
X3712900Y-7592900D02*
X3832900Y-7712900D01*
X3832900Y-7592900D02*
X3712900Y-7712900D01*
D11*
X4195281Y-7743376D02*
X4080995Y-7743376D01*
X4138138Y-7743376D02*
X4138138Y-7543376D01*
X4119090Y-7571948D01*
X4100043Y-7590995D01*
X4080995Y-7600519D01*
X4280995Y-7724328D02*
X4290519Y-7733852D01*
X4280995Y-7743376D01*
X4271471Y-7733852D01*
X4280995Y-7724328D01*
X4280995Y-7743376D01*
X4366710Y-7562424D02*
X4376233Y-7552900D01*
X4395281Y-7543376D01*
X4442900Y-7543376D01*
X4461948Y-7552900D01*
X4471471Y-7562424D01*
X4480995Y-7581471D01*
X4480995Y-7600519D01*
X4471471Y-7629090D01*
X4357186Y-7743376D01*
X4480995Y-7743376D01*
X4604805Y-7543376D02*
X4623852Y-7543376D01*
X4642900Y-7552900D01*
X4652424Y-7562424D01*
X4661948Y-7581471D01*
X4671471Y-7619567D01*
X4671471Y-7667186D01*
X4661948Y-7705281D01*
X4652424Y-7724328D01*
X4642900Y-7733852D01*
X4623852Y-7743376D01*
X4604805Y-7743376D01*
X4585757Y-7733852D01*
X4576233Y-7724328D01*
X4566710Y-7705281D01*
X4557186Y-7667186D01*
X4557186Y-7619567D01*
X4566710Y-7581471D01*
X4576233Y-7562424D01*
X4585757Y-7552900D01*
X4604805Y-7543376D01*
X4795281Y-7543376D02*
X4814329Y-7543376D01*
X4833376Y-7552900D01*
X4842900Y-7562424D01*
X4852424Y-7581471D01*
X4861948Y-7619567D01*
X4861948Y-7667186D01*
X4852424Y-7705281D01*
X4842900Y-7724328D01*
X4833376Y-7733852D01*
X4814329Y-7743376D01*
X4795281Y-7743376D01*
X4776233Y-7733852D01*
X4766710Y-7724328D01*
X4757186Y-7705281D01*
X4747662Y-7667186D01*
X4747662Y-7619567D01*
X4757186Y-7581471D01*
X4766710Y-7562424D01*
X4776233Y-7552900D01*
X4795281Y-7543376D01*
X4947662Y-7743376D02*
X4947662Y-7610043D01*
X4947662Y-7629090D02*
X4957186Y-7619567D01*
X4976233Y-7610043D01*
X5004805Y-7610043D01*
X5023852Y-7619567D01*
X5033376Y-7638614D01*
X5033376Y-7743376D01*
X5033376Y-7638614D02*
X5042900Y-7619567D01*
X5061948Y-7610043D01*
X5090519Y-7610043D01*
X5109567Y-7619567D01*
X5119090Y-7638614D01*
X5119090Y-7743376D01*
X5214329Y-7743376D02*
X5214329Y-7610043D01*
X5214329Y-7629090D02*
X5223852Y-7619567D01*
X5242900Y-7610043D01*
X5271471Y-7610043D01*
X5290519Y-7619567D01*
X5300043Y-7638614D01*
X5300043Y-7743376D01*
X5300043Y-7638614D02*
X5309567Y-7619567D01*
X5328614Y-7610043D01*
X5357186Y-7610043D01*
X5376233Y-7619567D01*
X5385757Y-7638614D01*
X5385757Y-7743376D01*
X5776233Y-7533852D02*
X5604805Y-7790995D01*
X6033376Y-7543376D02*
X6052424Y-7543376D01*
X6071471Y-7552900D01*
X6080995Y-7562424D01*
X6090519Y-7581471D01*
X6100043Y-7619567D01*
X6100043Y-7667186D01*
X6090519Y-7705281D01*
X6080995Y-7724328D01*
X6071471Y-7733852D01*
X6052424Y-7743376D01*
X6033376Y-7743376D01*
X6014328Y-7733852D01*
X6004805Y-7724328D01*
X5995281Y-7705281D01*
X5985757Y-7667186D01*
X5985757Y-7619567D01*
X5995281Y-7581471D01*
X6004805Y-7562424D01*
X6014328Y-7552900D01*
X6033376Y-7543376D01*
X6185757Y-7724328D02*
X6195281Y-7733852D01*
X6185757Y-7743376D01*
X6176233Y-7733852D01*
X6185757Y-7724328D01*
X6185757Y-7743376D01*
X6319090Y-7543376D02*
X6338138Y-7543376D01*
X6357186Y-7552900D01*
X6366709Y-7562424D01*
X6376233Y-7581471D01*
X6385757Y-7619567D01*
X6385757Y-7667186D01*
X6376233Y-7705281D01*
X6366709Y-7724328D01*
X6357186Y-7733852D01*
X6338138Y-7743376D01*
X6319090Y-7743376D01*
X6300043Y-7733852D01*
X6290519Y-7724328D01*
X6280995Y-7705281D01*
X6271471Y-7667186D01*
X6271471Y-7619567D01*
X6280995Y-7581471D01*
X6290519Y-7562424D01*
X6300043Y-7552900D01*
X6319090Y-7543376D01*
X6557186Y-7610043D02*
X6557186Y-7743376D01*
X6509567Y-7533852D02*
X6461948Y-7676709D01*
X6585757Y-7676709D01*
X6642900Y-7543376D02*
X6776233Y-7543376D01*
X6690519Y-7743376D01*
X6842900Y-7562424D02*
X6852424Y-7552900D01*
X6871471Y-7543376D01*
X6919090Y-7543376D01*
X6938138Y-7552900D01*
X6947662Y-7562424D01*
X6957186Y-7581471D01*
X6957186Y-7600519D01*
X6947662Y-7629090D01*
X6833376Y-7743376D01*
X6957186Y-7743376D01*
X7033376Y-7543376D02*
X7033376Y-7581471D01*
X7109567Y-7543376D02*
X7109567Y-7581471D01*
X7404805Y-7819567D02*
X7395281Y-7810043D01*
X7376233Y-7781471D01*
X7366709Y-7762424D01*
X7357186Y-7733852D01*
X7347662Y-7686233D01*
X7347662Y-7648138D01*
X7357186Y-7600519D01*
X7366709Y-7571948D01*
X7376233Y-7552900D01*
X7395281Y-7524328D01*
X7404805Y-7514805D01*
X7471471Y-7562424D02*
X7480995Y-7552900D01*
X7500043Y-7543376D01*
X7547662Y-7543376D01*
X7566709Y-7552900D01*
X7576233Y-7562424D01*
X7585757Y-7581471D01*
X7585757Y-7600519D01*
X7576233Y-7629090D01*
X7461948Y-7743376D01*
X7585757Y-7743376D01*
X7823852Y-7743376D02*
X7823852Y-7543376D01*
X7909567Y-7743376D02*
X7909567Y-7638614D01*
X7900043Y-7619567D01*
X7880995Y-7610043D01*
X7852424Y-7610043D01*
X7833376Y-7619567D01*
X7823852Y-7629090D01*
X8033376Y-7743376D02*
X8014328Y-7733852D01*
X8004805Y-7724328D01*
X7995281Y-7705281D01*
X7995281Y-7648138D01*
X8004805Y-7629090D01*
X8014328Y-7619567D01*
X8033376Y-7610043D01*
X8061948Y-7610043D01*
X8080995Y-7619567D01*
X8090519Y-7629090D01*
X8100043Y-7648138D01*
X8100043Y-7705281D01*
X8090519Y-7724328D01*
X8080995Y-7733852D01*
X8061948Y-7743376D01*
X8033376Y-7743376D01*
X8214328Y-7743376D02*
X8195281Y-7733852D01*
X8185757Y-7714805D01*
X8185757Y-7543376D01*
X8366709Y-7733852D02*
X8347662Y-7743376D01*
X8309567Y-7743376D01*
X8290519Y-7733852D01*
X8280995Y-7714805D01*
X8280995Y-7638614D01*
X8290519Y-7619567D01*
X8309567Y-7610043D01*
X8347662Y-7610043D01*
X8366709Y-7619567D01*
X8376233Y-7638614D01*
X8376233Y-7657662D01*
X8280995Y-7676709D01*
X8452424Y-7733852D02*
X8471471Y-7743376D01*
X8509567Y-7743376D01*
X8528614Y-7733852D01*
X8538138Y-7714805D01*
X8538138Y-7705281D01*
X8528614Y-7686233D01*
X8509567Y-7676709D01*
X8480995Y-7676709D01*
X8461948Y-7667186D01*
X8452424Y-7648138D01*
X8452424Y-7638614D01*
X8461948Y-7619567D01*
X8480995Y-7610043D01*
X8509567Y-7610043D01*
X8528614Y-7619567D01*
X8604805Y-7819567D02*
X8614329Y-7810043D01*
X8633376Y-7781471D01*
X8642900Y-7762424D01*
X8652424Y-7733852D01*
X8661948Y-7686233D01*
X8661948Y-7648138D01*
X8652424Y-7600519D01*
X8642900Y-7571948D01*
X8633376Y-7552900D01*
X8614329Y-7524328D01*
X8604805Y-7514805D01*
X8966710Y-7819567D02*
X8957186Y-7810043D01*
X8938138Y-7781471D01*
X8928614Y-7762424D01*
X8919090Y-7733852D01*
X8909567Y-7686233D01*
X8909567Y-7648138D01*
X8919090Y-7600519D01*
X8928614Y-7571948D01*
X8938138Y-7552900D01*
X8957186Y-7524328D01*
X8966710Y-7514805D01*
X9042900Y-7610043D02*
X9042900Y-7743376D01*
X9042900Y-7629090D02*
X9052424Y-7619567D01*
X9071471Y-7610043D01*
X9100043Y-7610043D01*
X9119090Y-7619567D01*
X9128614Y-7638614D01*
X9128614Y-7743376D01*
X9252424Y-7743376D02*
X9233376Y-7733852D01*
X9223852Y-7724328D01*
X9214329Y-7705281D01*
X9214329Y-7648138D01*
X9223852Y-7629090D01*
X9233376Y-7619567D01*
X9252424Y-7610043D01*
X9280995Y-7610043D01*
X9300043Y-7619567D01*
X9309567Y-7629090D01*
X9319090Y-7648138D01*
X9319090Y-7705281D01*
X9309567Y-7724328D01*
X9300043Y-7733852D01*
X9280995Y-7743376D01*
X9252424Y-7743376D01*
X9376233Y-7610043D02*
X9452424Y-7610043D01*
X9404805Y-7543376D02*
X9404805Y-7714805D01*
X9414329Y-7733852D01*
X9433376Y-7743376D01*
X9452424Y-7743376D01*
X9671471Y-7610043D02*
X9671471Y-7810043D01*
X9671471Y-7619567D02*
X9690519Y-7610043D01*
X9728614Y-7610043D01*
X9747662Y-7619567D01*
X9757186Y-7629090D01*
X9766710Y-7648138D01*
X9766710Y-7705281D01*
X9757186Y-7724328D01*
X9747662Y-7733852D01*
X9728614Y-7743376D01*
X9690519Y-7743376D01*
X9671471Y-7733852D01*
X9880995Y-7743376D02*
X9861948Y-7733852D01*
X9852424Y-7714805D01*
X9852424Y-7543376D01*
X10042900Y-7743376D02*
X10042900Y-7638614D01*
X10033376Y-7619567D01*
X10014329Y-7610043D01*
X9976233Y-7610043D01*
X9957186Y-7619567D01*
X10042900Y-7733852D02*
X10023852Y-7743376D01*
X9976233Y-7743376D01*
X9957186Y-7733852D01*
X9947662Y-7714805D01*
X9947662Y-7695757D01*
X9957186Y-7676709D01*
X9976233Y-7667186D01*
X10023852Y-7667186D01*
X10042900Y-7657662D01*
X10109567Y-7610043D02*
X10185757Y-7610043D01*
X10138138Y-7543376D02*
X10138138Y-7714805D01*
X10147662Y-7733852D01*
X10166710Y-7743376D01*
X10185757Y-7743376D01*
X10328614Y-7733852D02*
X10309567Y-7743376D01*
X10271471Y-7743376D01*
X10252424Y-7733852D01*
X10242900Y-7714805D01*
X10242900Y-7638614D01*
X10252424Y-7619567D01*
X10271471Y-7610043D01*
X10309567Y-7610043D01*
X10328614Y-7619567D01*
X10338138Y-7638614D01*
X10338138Y-7657662D01*
X10242900Y-7676709D01*
X10509567Y-7743376D02*
X10509567Y-7543376D01*
X10509567Y-7733852D02*
X10490519Y-7743376D01*
X10452424Y-7743376D01*
X10433376Y-7733852D01*
X10423852Y-7724328D01*
X10414329Y-7705281D01*
X10414329Y-7648138D01*
X10423852Y-7629090D01*
X10433376Y-7619567D01*
X10452424Y-7610043D01*
X10490519Y-7610043D01*
X10509567Y-7619567D01*
X10585757Y-7819567D02*
X10595281Y-7810043D01*
X10614329Y-7781471D01*
X10623852Y-7762424D01*
X10633376Y-7733852D01*
X10642900Y-7686233D01*
X10642900Y-7648138D01*
X10633376Y-7600519D01*
X10623852Y-7571948D01*
X10614329Y-7552900D01*
X10595281Y-7524328D01*
X10585757Y-7514805D01*
M02*
