%TF.GenerationSoftware,KiCad,Pcbnew,(6.0.7)*%
%TF.CreationDate,2022-09-22T21:27:18+02:00*%
%TF.ProjectId,PEQUENAreducida,50455155-454e-4417-9265-647563696461,rev?*%
%TF.SameCoordinates,Original*%
%TF.FileFunction,Legend,Bot*%
%TF.FilePolarity,Positive*%
%FSLAX46Y46*%
G04 Gerber Fmt 4.6, Leading zero omitted, Abs format (unit mm)*
G04 Created by KiCad (PCBNEW (6.0.7)) date 2022-09-22 21:27:18*
%MOMM*%
%LPD*%
G01*
G04 APERTURE LIST*
%ADD10C,0.120000*%
%ADD11C,0.300000*%
%ADD12C,0.150000*%
%ADD13C,0.200000*%
%ADD14C,0.127000*%
G04 APERTURE END LIST*
D10*
X135412000Y-58816000D02*
X112112000Y-58916000D01*
X112112000Y-51916000D02*
X109412000Y-51916000D01*
X109412000Y-51916000D02*
X109412000Y-31416000D01*
X112112000Y-58916000D02*
X112112000Y-51916000D01*
X109612000Y-31416000D02*
X135312000Y-31416000D01*
X135312000Y-31416000D02*
X135412000Y-58816000D01*
D11*
X131414285Y-34835357D02*
X130914285Y-34835357D01*
X130700000Y-35621071D02*
X131414285Y-35621071D01*
X131414285Y-34121071D01*
X130700000Y-34121071D01*
X130128571Y-35549642D02*
X129914285Y-35621071D01*
X129557142Y-35621071D01*
X129414285Y-35549642D01*
X129342857Y-35478214D01*
X129271428Y-35335357D01*
X129271428Y-35192500D01*
X129342857Y-35049642D01*
X129414285Y-34978214D01*
X129557142Y-34906785D01*
X129842857Y-34835357D01*
X129985714Y-34763928D01*
X130057142Y-34692500D01*
X130128571Y-34549642D01*
X130128571Y-34406785D01*
X130057142Y-34263928D01*
X129985714Y-34192500D01*
X129842857Y-34121071D01*
X129485714Y-34121071D01*
X129271428Y-34192500D01*
X128628571Y-35621071D02*
X128628571Y-34121071D01*
X128057142Y-34121071D01*
X127914285Y-34192500D01*
X127842857Y-34263928D01*
X127771428Y-34406785D01*
X127771428Y-34621071D01*
X127842857Y-34763928D01*
X127914285Y-34835357D01*
X128057142Y-34906785D01*
X128628571Y-34906785D01*
X126914285Y-34763928D02*
X127057142Y-34692500D01*
X127128571Y-34621071D01*
X127200000Y-34478214D01*
X127200000Y-34406785D01*
X127128571Y-34263928D01*
X127057142Y-34192500D01*
X126914285Y-34121071D01*
X126628571Y-34121071D01*
X126485714Y-34192500D01*
X126414285Y-34263928D01*
X126342857Y-34406785D01*
X126342857Y-34478214D01*
X126414285Y-34621071D01*
X126485714Y-34692500D01*
X126628571Y-34763928D01*
X126914285Y-34763928D01*
X127057142Y-34835357D01*
X127128571Y-34906785D01*
X127200000Y-35049642D01*
X127200000Y-35335357D01*
X127128571Y-35478214D01*
X127057142Y-35549642D01*
X126914285Y-35621071D01*
X126628571Y-35621071D01*
X126485714Y-35549642D01*
X126414285Y-35478214D01*
X126342857Y-35335357D01*
X126342857Y-35049642D01*
X126414285Y-34906785D01*
X126485714Y-34835357D01*
X126628571Y-34763928D01*
X125771428Y-34263928D02*
X125700000Y-34192500D01*
X125557142Y-34121071D01*
X125200000Y-34121071D01*
X125057142Y-34192500D01*
X124985714Y-34263928D01*
X124914285Y-34406785D01*
X124914285Y-34549642D01*
X124985714Y-34763928D01*
X125842857Y-35621071D01*
X124914285Y-35621071D01*
X123628571Y-34121071D02*
X123914285Y-34121071D01*
X124057142Y-34192500D01*
X124128571Y-34263928D01*
X124271428Y-34478214D01*
X124342857Y-34763928D01*
X124342857Y-35335357D01*
X124271428Y-35478214D01*
X124200000Y-35549642D01*
X124057142Y-35621071D01*
X123771428Y-35621071D01*
X123628571Y-35549642D01*
X123557142Y-35478214D01*
X123485714Y-35335357D01*
X123485714Y-34978214D01*
X123557142Y-34835357D01*
X123628571Y-34763928D01*
X123771428Y-34692500D01*
X124057142Y-34692500D01*
X124200000Y-34763928D01*
X124271428Y-34835357D01*
X124342857Y-34978214D01*
X122200000Y-34121071D02*
X122485714Y-34121071D01*
X122628571Y-34192500D01*
X122700000Y-34263928D01*
X122842857Y-34478214D01*
X122914285Y-34763928D01*
X122914285Y-35335357D01*
X122842857Y-35478214D01*
X122771428Y-35549642D01*
X122628571Y-35621071D01*
X122342857Y-35621071D01*
X122200000Y-35549642D01*
X122128571Y-35478214D01*
X122057142Y-35335357D01*
X122057142Y-34978214D01*
X122128571Y-34835357D01*
X122200000Y-34763928D01*
X122342857Y-34692500D01*
X122628571Y-34692500D01*
X122771428Y-34763928D01*
X122842857Y-34835357D01*
X122914285Y-34978214D01*
X119771428Y-34835357D02*
X120271428Y-34835357D01*
X120271428Y-35621071D02*
X120271428Y-34121071D01*
X119557142Y-34121071D01*
X119057142Y-35192500D02*
X118342857Y-35192500D01*
X119200000Y-35621071D02*
X118700000Y-34121071D01*
X118200000Y-35621071D01*
X116842857Y-35478214D02*
X116914285Y-35549642D01*
X117128571Y-35621071D01*
X117271428Y-35621071D01*
X117485714Y-35549642D01*
X117628571Y-35406785D01*
X117700000Y-35263928D01*
X117771428Y-34978214D01*
X117771428Y-34763928D01*
X117700000Y-34478214D01*
X117628571Y-34335357D01*
X117485714Y-34192500D01*
X117271428Y-34121071D01*
X117128571Y-34121071D01*
X116914285Y-34192500D01*
X116842857Y-34263928D01*
X116200000Y-35621071D02*
X116200000Y-34121071D01*
X115485714Y-35621071D02*
X115485714Y-34121071D01*
X114628571Y-35621071D01*
X114628571Y-34121071D01*
X113128571Y-34192500D02*
X113271428Y-34121071D01*
X113485714Y-34121071D01*
X113700000Y-34192500D01*
X113842857Y-34335357D01*
X113914285Y-34478214D01*
X113985714Y-34763928D01*
X113985714Y-34978214D01*
X113914285Y-35263928D01*
X113842857Y-35406785D01*
X113700000Y-35549642D01*
X113485714Y-35621071D01*
X113342857Y-35621071D01*
X113128571Y-35549642D01*
X113057142Y-35478214D01*
X113057142Y-34978214D01*
X113342857Y-34978214D01*
X127057142Y-36536071D02*
X126200000Y-36536071D01*
X126628571Y-38036071D02*
X126628571Y-36536071D01*
X125700000Y-38036071D02*
X125700000Y-36536071D01*
X125700000Y-37250357D02*
X124842857Y-37250357D01*
X124842857Y-38036071D02*
X124842857Y-36536071D01*
X124128571Y-38036071D02*
X124128571Y-36536071D01*
X123485714Y-37964642D02*
X123271428Y-38036071D01*
X122914285Y-38036071D01*
X122771428Y-37964642D01*
X122700000Y-37893214D01*
X122628571Y-37750357D01*
X122628571Y-37607500D01*
X122700000Y-37464642D01*
X122771428Y-37393214D01*
X122914285Y-37321785D01*
X123200000Y-37250357D01*
X123342857Y-37178928D01*
X123414285Y-37107500D01*
X123485714Y-36964642D01*
X123485714Y-36821785D01*
X123414285Y-36678928D01*
X123342857Y-36607500D01*
X123200000Y-36536071D01*
X122842857Y-36536071D01*
X122628571Y-36607500D01*
X120914285Y-37964642D02*
X120700000Y-38036071D01*
X120342857Y-38036071D01*
X120200000Y-37964642D01*
X120128571Y-37893214D01*
X120057142Y-37750357D01*
X120057142Y-37607500D01*
X120128571Y-37464642D01*
X120200000Y-37393214D01*
X120342857Y-37321785D01*
X120628571Y-37250357D01*
X120771428Y-37178928D01*
X120842857Y-37107500D01*
X120914285Y-36964642D01*
X120914285Y-36821785D01*
X120842857Y-36678928D01*
X120771428Y-36607500D01*
X120628571Y-36536071D01*
X120271428Y-36536071D01*
X120057142Y-36607500D01*
X119414285Y-38036071D02*
X119414285Y-36536071D01*
X118700000Y-38036071D02*
X118700000Y-36536071D01*
X118342857Y-36536071D01*
X118128571Y-36607500D01*
X117985714Y-36750357D01*
X117914285Y-36893214D01*
X117842857Y-37178928D01*
X117842857Y-37393214D01*
X117914285Y-37678928D01*
X117985714Y-37821785D01*
X118128571Y-37964642D01*
X118342857Y-38036071D01*
X118700000Y-38036071D01*
X117200000Y-37250357D02*
X116700000Y-37250357D01*
X116485714Y-38036071D02*
X117200000Y-38036071D01*
X117200000Y-36536071D01*
X116485714Y-36536071D01*
D12*
X121331500Y-60704619D02*
X121361976Y-60765571D01*
X121361976Y-60857000D01*
X121331500Y-60948428D01*
X121270547Y-61009380D01*
X121209595Y-61039857D01*
X121087690Y-61070333D01*
X120996261Y-61070333D01*
X120874357Y-61039857D01*
X120813404Y-61009380D01*
X120752452Y-60948428D01*
X120721976Y-60857000D01*
X120721976Y-60796047D01*
X120752452Y-60704619D01*
X120782928Y-60674142D01*
X120996261Y-60674142D01*
X120996261Y-60796047D01*
X120721976Y-60399857D02*
X121361976Y-60399857D01*
X120721976Y-60034142D01*
X121361976Y-60034142D01*
X120721976Y-59729380D02*
X121361976Y-59729380D01*
X121361976Y-59577000D01*
X121331500Y-59485571D01*
X121270547Y-59424619D01*
X121209595Y-59394142D01*
X121087690Y-59363666D01*
X120996261Y-59363666D01*
X120874357Y-59394142D01*
X120813404Y-59424619D01*
X120752452Y-59485571D01*
X120721976Y-59577000D01*
X120721976Y-59729380D01*
X132307238Y-50168380D02*
X131973904Y-51168380D01*
X131640571Y-50168380D01*
X131307238Y-51168380D02*
X131307238Y-50168380D01*
X130831047Y-51168380D02*
X130831047Y-50168380D01*
X130259619Y-51168380D01*
X130259619Y-50168380D01*
D13*
X148238095Y-39825000D02*
X148333333Y-39777380D01*
X148476190Y-39777380D01*
X148619047Y-39825000D01*
X148714285Y-39920238D01*
X148761904Y-40015476D01*
X148809523Y-40205952D01*
X148809523Y-40348809D01*
X148761904Y-40539285D01*
X148714285Y-40634523D01*
X148619047Y-40729761D01*
X148476190Y-40777380D01*
X148380952Y-40777380D01*
X148238095Y-40729761D01*
X148190476Y-40682142D01*
X148190476Y-40348809D01*
X148380952Y-40348809D01*
D12*
X114459619Y-33268380D02*
X114792952Y-32792190D01*
X115031047Y-33268380D02*
X115031047Y-32268380D01*
X114650095Y-32268380D01*
X114554857Y-32316000D01*
X114507238Y-32363619D01*
X114459619Y-32458857D01*
X114459619Y-32601714D01*
X114507238Y-32696952D01*
X114554857Y-32744571D01*
X114650095Y-32792190D01*
X115031047Y-32792190D01*
X114078666Y-33220761D02*
X113935809Y-33268380D01*
X113697714Y-33268380D01*
X113602476Y-33220761D01*
X113554857Y-33173142D01*
X113507238Y-33077904D01*
X113507238Y-32982666D01*
X113554857Y-32887428D01*
X113602476Y-32839809D01*
X113697714Y-32792190D01*
X113888190Y-32744571D01*
X113983428Y-32696952D01*
X114031047Y-32649333D01*
X114078666Y-32554095D01*
X114078666Y-32458857D01*
X114031047Y-32363619D01*
X113983428Y-32316000D01*
X113888190Y-32268380D01*
X113650095Y-32268380D01*
X113507238Y-32316000D01*
X113221523Y-32268380D02*
X112650095Y-32268380D01*
X112935809Y-33268380D02*
X112935809Y-32268380D01*
%TO.C,35V100mf*%
X140611904Y-39879761D02*
X140611904Y-40375000D01*
X140916666Y-40108333D01*
X140916666Y-40222619D01*
X140954761Y-40298809D01*
X140992857Y-40336904D01*
X141069047Y-40375000D01*
X141259523Y-40375000D01*
X141335714Y-40336904D01*
X141373809Y-40298809D01*
X141411904Y-40222619D01*
X141411904Y-39994047D01*
X141373809Y-39917857D01*
X141335714Y-39879761D01*
X140611904Y-41098809D02*
X140611904Y-40717857D01*
X140992857Y-40679761D01*
X140954761Y-40717857D01*
X140916666Y-40794047D01*
X140916666Y-40984523D01*
X140954761Y-41060714D01*
X140992857Y-41098809D01*
X141069047Y-41136904D01*
X141259523Y-41136904D01*
X141335714Y-41098809D01*
X141373809Y-41060714D01*
X141411904Y-40984523D01*
X141411904Y-40794047D01*
X141373809Y-40717857D01*
X141335714Y-40679761D01*
X140611904Y-41365476D02*
X141411904Y-41632142D01*
X140611904Y-41898809D01*
X141411904Y-42584523D02*
X141411904Y-42127380D01*
X141411904Y-42355952D02*
X140611904Y-42355952D01*
X140726190Y-42279761D01*
X140802380Y-42203571D01*
X140840476Y-42127380D01*
X140611904Y-43079761D02*
X140611904Y-43155952D01*
X140650000Y-43232142D01*
X140688095Y-43270238D01*
X140764285Y-43308333D01*
X140916666Y-43346428D01*
X141107142Y-43346428D01*
X141259523Y-43308333D01*
X141335714Y-43270238D01*
X141373809Y-43232142D01*
X141411904Y-43155952D01*
X141411904Y-43079761D01*
X141373809Y-43003571D01*
X141335714Y-42965476D01*
X141259523Y-42927380D01*
X141107142Y-42889285D01*
X140916666Y-42889285D01*
X140764285Y-42927380D01*
X140688095Y-42965476D01*
X140650000Y-43003571D01*
X140611904Y-43079761D01*
X140611904Y-43841666D02*
X140611904Y-43917857D01*
X140650000Y-43994047D01*
X140688095Y-44032142D01*
X140764285Y-44070238D01*
X140916666Y-44108333D01*
X141107142Y-44108333D01*
X141259523Y-44070238D01*
X141335714Y-44032142D01*
X141373809Y-43994047D01*
X141411904Y-43917857D01*
X141411904Y-43841666D01*
X141373809Y-43765476D01*
X141335714Y-43727380D01*
X141259523Y-43689285D01*
X141107142Y-43651190D01*
X140916666Y-43651190D01*
X140764285Y-43689285D01*
X140688095Y-43727380D01*
X140650000Y-43765476D01*
X140611904Y-43841666D01*
X141411904Y-44451190D02*
X140878571Y-44451190D01*
X140954761Y-44451190D02*
X140916666Y-44489285D01*
X140878571Y-44565476D01*
X140878571Y-44679761D01*
X140916666Y-44755952D01*
X140992857Y-44794047D01*
X141411904Y-44794047D01*
X140992857Y-44794047D02*
X140916666Y-44832142D01*
X140878571Y-44908333D01*
X140878571Y-45022619D01*
X140916666Y-45098809D01*
X140992857Y-45136904D01*
X141411904Y-45136904D01*
X140878571Y-45403571D02*
X140878571Y-45708333D01*
X141411904Y-45517857D02*
X140726190Y-45517857D01*
X140650000Y-45555952D01*
X140611904Y-45632142D01*
X140611904Y-45708333D01*
%TO.C,MOTOR*%
X132561904Y-60155380D02*
X132561904Y-59155380D01*
X132228571Y-59869666D01*
X131895238Y-59155380D01*
X131895238Y-60155380D01*
X131228571Y-59155380D02*
X131038095Y-59155380D01*
X130942857Y-59203000D01*
X130847619Y-59298238D01*
X130800000Y-59488714D01*
X130800000Y-59822047D01*
X130847619Y-60012523D01*
X130942857Y-60107761D01*
X131038095Y-60155380D01*
X131228571Y-60155380D01*
X131323809Y-60107761D01*
X131419047Y-60012523D01*
X131466666Y-59822047D01*
X131466666Y-59488714D01*
X131419047Y-59298238D01*
X131323809Y-59203000D01*
X131228571Y-59155380D01*
X130514285Y-59155380D02*
X129942857Y-59155380D01*
X130228571Y-60155380D02*
X130228571Y-59155380D01*
X129419047Y-59155380D02*
X129228571Y-59155380D01*
X129133333Y-59203000D01*
X129038095Y-59298238D01*
X128990476Y-59488714D01*
X128990476Y-59822047D01*
X129038095Y-60012523D01*
X129133333Y-60107761D01*
X129228571Y-60155380D01*
X129419047Y-60155380D01*
X129514285Y-60107761D01*
X129609523Y-60012523D01*
X129657142Y-59822047D01*
X129657142Y-59488714D01*
X129609523Y-59298238D01*
X129514285Y-59203000D01*
X129419047Y-59155380D01*
X127990476Y-60155380D02*
X128323809Y-59679190D01*
X128561904Y-60155380D02*
X128561904Y-59155380D01*
X128180952Y-59155380D01*
X128085714Y-59203000D01*
X128038095Y-59250619D01*
X127990476Y-59345857D01*
X127990476Y-59488714D01*
X128038095Y-59583952D01*
X128085714Y-59631571D01*
X128180952Y-59679190D01*
X128561904Y-59679190D01*
%TO.C,- 24V +*%
X150990857Y-31584428D02*
X150228952Y-31584428D01*
X149038476Y-31060619D02*
X148990857Y-31013000D01*
X148895619Y-30965380D01*
X148657523Y-30965380D01*
X148562285Y-31013000D01*
X148514666Y-31060619D01*
X148467047Y-31155857D01*
X148467047Y-31251095D01*
X148514666Y-31393952D01*
X149086095Y-31965380D01*
X148467047Y-31965380D01*
X147609904Y-31298714D02*
X147609904Y-31965380D01*
X147848000Y-30917761D02*
X148086095Y-31632047D01*
X147467047Y-31632047D01*
X147228952Y-30965380D02*
X146895619Y-31965380D01*
X146562285Y-30965380D01*
X145467047Y-31584428D02*
X144705142Y-31584428D01*
X145086095Y-31965380D02*
X145086095Y-31203476D01*
%TO.C,J2*%
X138001333Y-30904380D02*
X138001333Y-31618666D01*
X138048952Y-31761523D01*
X138144190Y-31856761D01*
X138287047Y-31904380D01*
X138382285Y-31904380D01*
X137572761Y-30999619D02*
X137525142Y-30952000D01*
X137429904Y-30904380D01*
X137191809Y-30904380D01*
X137096571Y-30952000D01*
X137048952Y-30999619D01*
X137001333Y-31094857D01*
X137001333Y-31190095D01*
X137048952Y-31332952D01*
X137620380Y-31904380D01*
X137001333Y-31904380D01*
%TO.C,J1*%
X141811333Y-30904380D02*
X141811333Y-31618666D01*
X141858952Y-31761523D01*
X141954190Y-31856761D01*
X142097047Y-31904380D01*
X142192285Y-31904380D01*
X140811333Y-31904380D02*
X141382761Y-31904380D01*
X141097047Y-31904380D02*
X141097047Y-30904380D01*
X141192285Y-31047238D01*
X141287523Y-31142476D01*
X141382761Y-31190095D01*
%TO.C,WEMOS D1*%
X130927380Y-40715476D02*
X131927380Y-40953571D01*
X131213095Y-41144047D01*
X131927380Y-41334523D01*
X130927380Y-41572619D01*
X131403571Y-41953571D02*
X131403571Y-42286904D01*
X131927380Y-42429761D02*
X131927380Y-41953571D01*
X130927380Y-41953571D01*
X130927380Y-42429761D01*
X131927380Y-42858333D02*
X130927380Y-42858333D01*
X131641666Y-43191666D01*
X130927380Y-43525000D01*
X131927380Y-43525000D01*
X130927380Y-44191666D02*
X130927380Y-44382142D01*
X130975000Y-44477380D01*
X131070238Y-44572619D01*
X131260714Y-44620238D01*
X131594047Y-44620238D01*
X131784523Y-44572619D01*
X131879761Y-44477380D01*
X131927380Y-44382142D01*
X131927380Y-44191666D01*
X131879761Y-44096428D01*
X131784523Y-44001190D01*
X131594047Y-43953571D01*
X131260714Y-43953571D01*
X131070238Y-44001190D01*
X130975000Y-44096428D01*
X130927380Y-44191666D01*
X131879761Y-45001190D02*
X131927380Y-45144047D01*
X131927380Y-45382142D01*
X131879761Y-45477380D01*
X131832142Y-45525000D01*
X131736904Y-45572619D01*
X131641666Y-45572619D01*
X131546428Y-45525000D01*
X131498809Y-45477380D01*
X131451190Y-45382142D01*
X131403571Y-45191666D01*
X131355952Y-45096428D01*
X131308333Y-45048809D01*
X131213095Y-45001190D01*
X131117857Y-45001190D01*
X131022619Y-45048809D01*
X130975000Y-45096428D01*
X130927380Y-45191666D01*
X130927380Y-45429761D01*
X130975000Y-45572619D01*
X131927380Y-46763095D02*
X130927380Y-46763095D01*
X130927380Y-47001190D01*
X130975000Y-47144047D01*
X131070238Y-47239285D01*
X131165476Y-47286904D01*
X131355952Y-47334523D01*
X131498809Y-47334523D01*
X131689285Y-47286904D01*
X131784523Y-47239285D01*
X131879761Y-47144047D01*
X131927380Y-47001190D01*
X131927380Y-46763095D01*
X131927380Y-48286904D02*
X131927380Y-47715476D01*
X131927380Y-48001190D02*
X130927380Y-48001190D01*
X131070238Y-47905952D01*
X131165476Y-47810714D01*
X131213095Y-47715476D01*
X122439130Y-45311488D02*
X121439130Y-45311488D01*
X121915321Y-45311488D02*
X121915321Y-45882916D01*
X122439130Y-45882916D02*
X121439130Y-45882916D01*
X121439130Y-46263869D02*
X122439130Y-46501964D01*
X121724845Y-46692440D01*
X122439130Y-46882916D01*
X121439130Y-47121011D01*
X122058178Y-47501964D02*
X122058178Y-48263869D01*
X121439130Y-49168630D02*
X121439130Y-48978154D01*
X121486750Y-48882916D01*
X121534369Y-48835297D01*
X121677226Y-48740059D01*
X121867702Y-48692440D01*
X122248654Y-48692440D01*
X122343892Y-48740059D01*
X122391511Y-48787678D01*
X122439130Y-48882916D01*
X122439130Y-49073392D01*
X122391511Y-49168630D01*
X122343892Y-49216250D01*
X122248654Y-49263869D01*
X122010559Y-49263869D01*
X121915321Y-49216250D01*
X121867702Y-49168630D01*
X121820083Y-49073392D01*
X121820083Y-48882916D01*
X121867702Y-48787678D01*
X121915321Y-48740059D01*
X122010559Y-48692440D01*
X122439130Y-50216250D02*
X122439130Y-49644821D01*
X122439130Y-49930535D02*
X121439130Y-49930535D01*
X121581988Y-49835297D01*
X121677226Y-49740059D01*
X121724845Y-49644821D01*
X121439130Y-50549583D02*
X121439130Y-51168630D01*
X121820083Y-50835297D01*
X121820083Y-50978154D01*
X121867702Y-51073392D01*
X121915321Y-51121011D01*
X122010559Y-51168630D01*
X122248654Y-51168630D01*
X122343892Y-51121011D01*
X122391511Y-51073392D01*
X122439130Y-50978154D01*
X122439130Y-50692440D01*
X122391511Y-50597202D01*
X122343892Y-50549583D01*
X123591523Y-59529571D02*
X122951523Y-59529571D01*
X123591523Y-59834333D02*
X122951523Y-59834333D01*
X123591523Y-60200047D01*
X122951523Y-60200047D01*
X123347714Y-60504809D02*
X123347714Y-60992428D01*
X123591523Y-60748619D02*
X123103904Y-60748619D01*
X117871523Y-59316238D02*
X118511523Y-59529571D01*
X117871523Y-59742904D01*
X117871523Y-60078142D02*
X117871523Y-60200047D01*
X117902000Y-60261000D01*
X117962952Y-60321952D01*
X118084857Y-60352428D01*
X118298190Y-60352428D01*
X118420095Y-60321952D01*
X118481047Y-60261000D01*
X118511523Y-60200047D01*
X118511523Y-60078142D01*
X118481047Y-60017190D01*
X118420095Y-59956238D01*
X118298190Y-59925761D01*
X118084857Y-59925761D01*
X117962952Y-59956238D01*
X117902000Y-60017190D01*
X117871523Y-60078142D01*
X118267714Y-60626714D02*
X118267714Y-61114333D01*
X118511523Y-60870523D02*
X118023904Y-60870523D01*
X125796285Y-59788619D02*
X125796285Y-60001952D01*
X126131523Y-60093380D02*
X126131523Y-59788619D01*
X125491523Y-59788619D01*
X125491523Y-60093380D01*
X126131523Y-60367666D02*
X125491523Y-60367666D01*
X126131523Y-60733380D01*
X125491523Y-60733380D01*
%TO.C,DRIVER*%
X146892952Y-58568380D02*
X146892952Y-57568380D01*
X146654857Y-57568380D01*
X146512000Y-57616000D01*
X146416761Y-57711238D01*
X146369142Y-57806476D01*
X146321523Y-57996952D01*
X146321523Y-58139809D01*
X146369142Y-58330285D01*
X146416761Y-58425523D01*
X146512000Y-58520761D01*
X146654857Y-58568380D01*
X146892952Y-58568380D01*
X145321523Y-58568380D02*
X145654857Y-58092190D01*
X145892952Y-58568380D02*
X145892952Y-57568380D01*
X145512000Y-57568380D01*
X145416761Y-57616000D01*
X145369142Y-57663619D01*
X145321523Y-57758857D01*
X145321523Y-57901714D01*
X145369142Y-57996952D01*
X145416761Y-58044571D01*
X145512000Y-58092190D01*
X145892952Y-58092190D01*
X144892952Y-58568380D02*
X144892952Y-57568380D01*
X144559619Y-57568380D02*
X144226285Y-58568380D01*
X143892952Y-57568380D01*
X143559619Y-58044571D02*
X143226285Y-58044571D01*
X143083428Y-58568380D02*
X143559619Y-58568380D01*
X143559619Y-57568380D01*
X143083428Y-57568380D01*
X142083428Y-58568380D02*
X142416761Y-58092190D01*
X142654857Y-58568380D02*
X142654857Y-57568380D01*
X142273904Y-57568380D01*
X142178666Y-57616000D01*
X142131047Y-57663619D01*
X142083428Y-57758857D01*
X142083428Y-57901714D01*
X142131047Y-57996952D01*
X142178666Y-58044571D01*
X142273904Y-58092190D01*
X142654857Y-58092190D01*
D10*
%TO.C,35V100mf*%
X145815888Y-40660000D02*
X145815888Y-39220000D01*
X146615888Y-43795000D02*
X146615888Y-42740000D01*
X147415888Y-42878000D02*
X147415888Y-40522000D01*
X145374888Y-40660000D02*
X145374888Y-39135000D01*
X147215888Y-40660000D02*
X147215888Y-40200000D01*
X145895888Y-44155000D02*
X145895888Y-42740000D01*
X145494888Y-40660000D02*
X145494888Y-39150000D01*
X146375888Y-40660000D02*
X146375888Y-39453000D01*
X146495888Y-40660000D02*
X146495888Y-39525000D01*
X145094888Y-44280000D02*
X145094888Y-39120000D01*
X147335888Y-40660000D02*
X147335888Y-40381000D01*
X146175888Y-44048000D02*
X146175888Y-42740000D01*
X145614888Y-40660000D02*
X145614888Y-39172000D01*
X146255888Y-40660000D02*
X146255888Y-39390000D01*
X145734888Y-44201000D02*
X145734888Y-42740000D01*
X145935888Y-40660000D02*
X145935888Y-39258000D01*
X145815888Y-44180000D02*
X145815888Y-42740000D01*
X147295888Y-40660000D02*
X147295888Y-40317000D01*
X145694888Y-44211000D02*
X145694888Y-42740000D01*
X146415888Y-43924000D02*
X146415888Y-42740000D01*
X147535888Y-42615000D02*
X147535888Y-40785000D01*
X147655888Y-42218000D02*
X147655888Y-41182000D01*
X147575888Y-42505000D02*
X147575888Y-40895000D01*
X146775888Y-40660000D02*
X146775888Y-39729000D01*
X146655888Y-40660000D02*
X146655888Y-39635000D01*
X146095888Y-40660000D02*
X146095888Y-39318000D01*
X146015888Y-40660000D02*
X146015888Y-39286000D01*
X145494888Y-44250000D02*
X145494888Y-42740000D01*
X145694888Y-40660000D02*
X145694888Y-39189000D01*
X147255888Y-43143000D02*
X147255888Y-42740000D01*
X145774888Y-44191000D02*
X145774888Y-42740000D01*
X145534888Y-44243000D02*
X145534888Y-42740000D01*
X146295888Y-43990000D02*
X146295888Y-42740000D01*
X147495888Y-42711000D02*
X147495888Y-40689000D01*
X145254888Y-44276000D02*
X145254888Y-39124000D01*
X147215888Y-43200000D02*
X147215888Y-42740000D01*
X146295888Y-40660000D02*
X146295888Y-39410000D01*
X145855888Y-44168000D02*
X145855888Y-42740000D01*
X146135888Y-44065000D02*
X146135888Y-42740000D01*
X145174888Y-44279000D02*
X145174888Y-39121000D01*
X145414888Y-44261000D02*
X145414888Y-42740000D01*
X145975888Y-44128000D02*
X145975888Y-42740000D01*
X146935888Y-40660000D02*
X146935888Y-39874000D01*
X145334888Y-44269000D02*
X145334888Y-42740000D01*
X145414888Y-40660000D02*
X145414888Y-39139000D01*
X146895888Y-43564000D02*
X146895888Y-42740000D01*
X146455888Y-43900000D02*
X146455888Y-42740000D01*
X146495888Y-43875000D02*
X146495888Y-42740000D01*
X147175888Y-43254000D02*
X147175888Y-42740000D01*
X146695888Y-43735000D02*
X146695888Y-42740000D01*
X147615888Y-42377000D02*
X147615888Y-41023000D01*
X146975888Y-40660000D02*
X146975888Y-39915000D01*
X146775888Y-43671000D02*
X146775888Y-42740000D01*
X146215888Y-44029000D02*
X146215888Y-42740000D01*
X146455888Y-40660000D02*
X146455888Y-39500000D01*
X147695888Y-41984000D02*
X147695888Y-41416000D01*
X147255888Y-40660000D02*
X147255888Y-40257000D01*
X145454888Y-44256000D02*
X145454888Y-42740000D01*
X147335888Y-43019000D02*
X147335888Y-42740000D01*
X146935888Y-43526000D02*
X146935888Y-42740000D01*
X145975888Y-40660000D02*
X145975888Y-39272000D01*
X145574888Y-44236000D02*
X145574888Y-42740000D01*
X147095888Y-40660000D02*
X147095888Y-40047000D01*
X146655888Y-43765000D02*
X146655888Y-42740000D01*
X147055888Y-43399000D02*
X147055888Y-42740000D01*
X147455888Y-42798000D02*
X147455888Y-40602000D01*
X146855888Y-43601000D02*
X146855888Y-42740000D01*
X145654888Y-44220000D02*
X145654888Y-42740000D01*
X146095888Y-44082000D02*
X146095888Y-42740000D01*
X146695888Y-40660000D02*
X146695888Y-39665000D01*
X145895888Y-40660000D02*
X145895888Y-39245000D01*
X145935888Y-44142000D02*
X145935888Y-42740000D01*
X145774888Y-40660000D02*
X145774888Y-39209000D01*
X145855888Y-40660000D02*
X145855888Y-39232000D01*
X146575888Y-43822000D02*
X146575888Y-42740000D01*
X146415888Y-40660000D02*
X146415888Y-39476000D01*
X146335888Y-40660000D02*
X146335888Y-39432000D01*
X146015888Y-44114000D02*
X146015888Y-42740000D01*
X146175888Y-40660000D02*
X146175888Y-39352000D01*
X146815888Y-40660000D02*
X146815888Y-39763000D01*
X145614888Y-44228000D02*
X145614888Y-42740000D01*
X146855888Y-40660000D02*
X146855888Y-39799000D01*
X145454888Y-40660000D02*
X145454888Y-39144000D01*
X145654888Y-40660000D02*
X145654888Y-39180000D01*
X146535888Y-43849000D02*
X146535888Y-42740000D01*
X146735888Y-40660000D02*
X146735888Y-39696000D01*
X146375888Y-43947000D02*
X146375888Y-42740000D01*
X146975888Y-43485000D02*
X146975888Y-42740000D01*
X146135888Y-40660000D02*
X146135888Y-39335000D01*
X146535888Y-40660000D02*
X146535888Y-39551000D01*
X145294888Y-44273000D02*
X145294888Y-39127000D01*
X146575888Y-40660000D02*
X146575888Y-39578000D01*
X142290113Y-43175000D02*
X142790113Y-43175000D01*
X145374888Y-44265000D02*
X145374888Y-42740000D01*
X145134888Y-44280000D02*
X145134888Y-39120000D01*
X147015888Y-43443000D02*
X147015888Y-42740000D01*
X147015888Y-40660000D02*
X147015888Y-39957000D01*
X147295888Y-43083000D02*
X147295888Y-42740000D01*
X147135888Y-40660000D02*
X147135888Y-40095000D01*
X147175888Y-40660000D02*
X147175888Y-40146000D01*
X142540113Y-43425000D02*
X142540113Y-42925000D01*
X145334888Y-40660000D02*
X145334888Y-39131000D01*
X147055888Y-40660000D02*
X147055888Y-40001000D01*
X146255888Y-44010000D02*
X146255888Y-42740000D01*
X145214888Y-44278000D02*
X145214888Y-39122000D01*
X145534888Y-40660000D02*
X145534888Y-39157000D01*
X146615888Y-40660000D02*
X146615888Y-39605000D01*
X145734888Y-40660000D02*
X145734888Y-39199000D01*
X147095888Y-43353000D02*
X147095888Y-42740000D01*
X146335888Y-43968000D02*
X146335888Y-42740000D01*
X146815888Y-43637000D02*
X146815888Y-42740000D01*
X146055888Y-40660000D02*
X146055888Y-39302000D01*
X146895888Y-40660000D02*
X146895888Y-39836000D01*
X145574888Y-40660000D02*
X145574888Y-39164000D01*
X146735888Y-43704000D02*
X146735888Y-42740000D01*
X146215888Y-40660000D02*
X146215888Y-39371000D01*
X146055888Y-44098000D02*
X146055888Y-42740000D01*
X147375888Y-42951000D02*
X147375888Y-42740000D01*
X147375888Y-40660000D02*
X147375888Y-40449000D01*
X147135888Y-43305000D02*
X147135888Y-42740000D01*
X147714888Y-41700000D02*
G75*
G03*
X147714888Y-41700000I-2620000J0D01*
G01*
%TO.C,MOTOR*%
X133300000Y-66725000D02*
X127300000Y-66725000D01*
X136610000Y-66735000D02*
X123990000Y-66735000D01*
X136600000Y-66725000D02*
X134800000Y-66725000D01*
X123700000Y-67025000D02*
X123700000Y-65775000D01*
X134800000Y-66725000D02*
X134800000Y-65975000D01*
X124000000Y-64475000D02*
X124750000Y-64475000D01*
X125800000Y-66725000D02*
X124000000Y-66725000D01*
X124750000Y-64475000D02*
X124750000Y-63135000D01*
X135850000Y-61525000D02*
X130300000Y-61525000D01*
X136610000Y-60765000D02*
X136610000Y-66735000D01*
X127300000Y-65975000D02*
X133300000Y-65975000D01*
X130300000Y-61525000D02*
X125810000Y-61525000D01*
X124000000Y-66725000D02*
X124000000Y-65975000D01*
X133300000Y-65975000D02*
X133300000Y-66725000D01*
X135850000Y-64475000D02*
X135850000Y-61525000D01*
X134800000Y-65975000D02*
X136600000Y-65975000D01*
X125800000Y-65975000D02*
X125800000Y-66725000D01*
X123990000Y-66735000D02*
X123990000Y-60765000D01*
X127300000Y-66725000D02*
X127300000Y-65975000D01*
X124950000Y-67025000D02*
X123700000Y-67025000D01*
X136600000Y-64475000D02*
X135850000Y-64475000D01*
X124000000Y-65975000D02*
X125800000Y-65975000D01*
X136600000Y-65975000D02*
X136600000Y-66725000D01*
X123990000Y-60765000D02*
X136610000Y-60765000D01*
%TO.C,- 24V +*%
X150698000Y-31794000D02*
X151948000Y-31794000D01*
X144048000Y-32844000D02*
X144048000Y-32094000D01*
X150898000Y-34344000D02*
X150898000Y-35684000D01*
X145848000Y-32844000D02*
X144048000Y-32844000D01*
X151648000Y-32844000D02*
X149848000Y-32844000D01*
X147348000Y-32844000D02*
X147348000Y-32094000D01*
X144798000Y-37294000D02*
X147848000Y-37294000D01*
X149848000Y-32094000D02*
X151648000Y-32094000D01*
X144048000Y-34344000D02*
X144798000Y-34344000D01*
X144798000Y-34344000D02*
X144798000Y-37294000D01*
X144038000Y-32084000D02*
X151658000Y-32084000D01*
X151658000Y-38054000D02*
X144038000Y-38054000D01*
X147848000Y-37294000D02*
X149838000Y-37294000D01*
X147348000Y-32094000D02*
X148348000Y-32094000D01*
X145848000Y-32094000D02*
X145848000Y-32844000D01*
X144048000Y-32094000D02*
X145848000Y-32094000D01*
X151948000Y-31794000D02*
X151948000Y-33044000D01*
X149848000Y-32844000D02*
X149848000Y-32094000D01*
X148348000Y-32094000D02*
X148348000Y-32844000D01*
X151658000Y-32084000D02*
X151658000Y-38054000D01*
X151648000Y-34344000D02*
X150898000Y-34344000D01*
X151648000Y-32094000D02*
X151648000Y-32844000D01*
X144038000Y-38054000D02*
X144038000Y-32084000D01*
X148348000Y-32844000D02*
X147348000Y-32844000D01*
%TO.C,J2*%
X138998000Y-37652000D02*
X136338000Y-37652000D01*
X138998000Y-32452000D02*
X137668000Y-32452000D01*
X138998000Y-35052000D02*
X136338000Y-35052000D01*
X138998000Y-33782000D02*
X138998000Y-32452000D01*
X136338000Y-35052000D02*
X136338000Y-37652000D01*
X138998000Y-35052000D02*
X138998000Y-37652000D01*
%TO.C,J1*%
X142808000Y-33782000D02*
X142808000Y-32452000D01*
X140148000Y-35052000D02*
X140148000Y-37652000D01*
X142808000Y-35052000D02*
X142808000Y-37652000D01*
X142808000Y-35052000D02*
X140148000Y-35052000D01*
X142808000Y-32452000D02*
X141478000Y-32452000D01*
X142808000Y-37652000D02*
X140148000Y-37652000D01*
D14*
%TO.C,WEMOS D1*%
X117000000Y-59045000D02*
X127160000Y-59045000D01*
X117000000Y-38725000D02*
X117000000Y-59045000D01*
X127160000Y-38725000D02*
X117000000Y-38725000D01*
X127160000Y-59045000D02*
X127160000Y-38725000D01*
D10*
%TO.C,DRIVER*%
X137668000Y-59566000D02*
X136268000Y-59566000D01*
X151768000Y-38986000D02*
X151768000Y-59566000D01*
X151768000Y-59566000D02*
X138938000Y-59566000D01*
X149098000Y-59566000D02*
X149098000Y-38986000D01*
X136268000Y-38986000D02*
X151768000Y-38986000D01*
X136268000Y-56896000D02*
X136268000Y-38986000D01*
X138938000Y-56896000D02*
X136268000Y-56896000D01*
X136268000Y-59566000D02*
X136268000Y-58166000D01*
X138938000Y-59566000D02*
X138938000Y-56896000D01*
X138938000Y-56896000D02*
X138938000Y-38986000D01*
%TD*%
M02*
