%TF.GenerationSoftware,KiCad,Pcbnew,(6.0.7)*%
%TF.CreationDate,2022-09-22T21:27:18+02:00*%
%TF.ProjectId,PEQUENAreducida,50455155-454e-4417-9265-647563696461,rev?*%
%TF.SameCoordinates,Original*%
%TF.FileFunction,Copper,L1,Top*%
%TF.FilePolarity,Positive*%
%FSLAX46Y46*%
G04 Gerber Fmt 4.6, Leading zero omitted, Abs format (unit mm)*
G04 Created by KiCad (PCBNEW (6.0.7)) date 2022-09-22 21:27:18*
%MOMM*%
%LPD*%
G01*
G04 APERTURE LIST*
G04 Aperture macros list*
%AMRoundRect*
0 Rectangle with rounded corners*
0 $1 Rounding radius*
0 $2 $3 $4 $5 $6 $7 $8 $9 X,Y pos of 4 corners*
0 Add a 4 corners polygon primitive as box body*
4,1,4,$2,$3,$4,$5,$6,$7,$8,$9,$2,$3,0*
0 Add four circle primitives for the rounded corners*
1,1,$1+$1,$2,$3*
1,1,$1+$1,$4,$5*
1,1,$1+$1,$6,$7*
1,1,$1+$1,$8,$9*
0 Add four rect primitives between the rounded corners*
20,1,$1+$1,$2,$3,$4,$5,0*
20,1,$1+$1,$4,$5,$6,$7,0*
20,1,$1+$1,$6,$7,$8,$9,0*
20,1,$1+$1,$8,$9,$2,$3,0*%
G04 Aperture macros list end*
%TA.AperFunction,ComponentPad*%
%ADD10R,2.000000X2.000000*%
%TD*%
%TA.AperFunction,ComponentPad*%
%ADD11O,2.000000X1.600000*%
%TD*%
%TA.AperFunction,ComponentPad*%
%ADD12R,1.600000X1.600000*%
%TD*%
%TA.AperFunction,ComponentPad*%
%ADD13C,1.600000*%
%TD*%
%TA.AperFunction,ComponentPad*%
%ADD14RoundRect,0.250000X-0.600000X-0.725000X0.600000X-0.725000X0.600000X0.725000X-0.600000X0.725000X0*%
%TD*%
%TA.AperFunction,ComponentPad*%
%ADD15O,1.700000X1.950000*%
%TD*%
%TA.AperFunction,ComponentPad*%
%ADD16RoundRect,0.250000X0.600000X0.750000X-0.600000X0.750000X-0.600000X-0.750000X0.600000X-0.750000X0*%
%TD*%
%TA.AperFunction,ComponentPad*%
%ADD17O,1.700000X2.000000*%
%TD*%
%TA.AperFunction,ComponentPad*%
%ADD18R,1.700000X1.700000*%
%TD*%
%TA.AperFunction,ComponentPad*%
%ADD19O,1.700000X1.700000*%
%TD*%
%TA.AperFunction,ComponentPad*%
%ADD20R,1.930400X1.930400*%
%TD*%
%TA.AperFunction,ComponentPad*%
%ADD21O,1.600000X1.600000*%
%TD*%
%TA.AperFunction,Conductor*%
%ADD22C,0.500000*%
%TD*%
G04 APERTURE END LIST*
D10*
%TO.P,WEMOS D1,1*%
%TO.N,N/C*%
X110944000Y-32778000D03*
D11*
%TO.P,WEMOS D1,2*%
X110944000Y-35318000D03*
%TO.P,WEMOS D1,3*%
X110944000Y-37858000D03*
%TO.P,WEMOS D1,4*%
X110944000Y-40398000D03*
%TO.P,WEMOS D1,5*%
X110944000Y-42938000D03*
%TO.P,WEMOS D1,6*%
X110944000Y-45478000D03*
%TO.P,WEMOS D1,7*%
X110944000Y-48018000D03*
%TO.P,WEMOS D1,8*%
X110944000Y-50558000D03*
%TO.P,WEMOS D1,9*%
X133804000Y-50558000D03*
%TO.P,WEMOS D1,10*%
X133804000Y-48018000D03*
%TO.P,WEMOS D1,11*%
X133804000Y-45478000D03*
%TO.P,WEMOS D1,12*%
X133804000Y-42938000D03*
%TO.P,WEMOS D1,13*%
X133804000Y-40398000D03*
%TO.P,WEMOS D1,14*%
X133804000Y-37858000D03*
%TO.P,WEMOS D1,15*%
X133804000Y-35318000D03*
%TO.P,WEMOS D1,16*%
X133804000Y-32778000D03*
%TD*%
D12*
%TO.P,35V100mf,1*%
%TO.N,N/C*%
X143844888Y-41700000D03*
D13*
%TO.P,35V100mf,2*%
X146344888Y-41700000D03*
%TD*%
D14*
%TO.P,MOTOR,1*%
%TO.N,N/C*%
X126550000Y-64275000D03*
D15*
%TO.P,MOTOR,2*%
X129050000Y-64275000D03*
%TO.P,MOTOR,3*%
X131550000Y-64275000D03*
%TO.P,MOTOR,4*%
X134050000Y-64275000D03*
%TD*%
D16*
%TO.P,- 24V +,1*%
%TO.N,N/C*%
X149098000Y-34544000D03*
D17*
%TO.P,- 24V +,2*%
X146598000Y-34544000D03*
%TD*%
D18*
%TO.P,J2,1*%
%TO.N,N/C*%
X137668000Y-33782000D03*
D19*
%TO.P,J2,2*%
X137668000Y-36322000D03*
%TD*%
D18*
%TO.P,J1,1*%
%TO.N,N/C*%
X141478000Y-33782000D03*
D19*
%TO.P,J1,2*%
X141478000Y-36322000D03*
%TD*%
D20*
%TO.P,WEMOS D1,EN*%
%TO.N,N/C*%
X125890000Y-57775000D03*
%TO.P,WEMOS D1,GND*%
X120810000Y-57775000D03*
%TO.P,WEMOS D1,IN+*%
X123350000Y-57775000D03*
%TO.P,WEMOS D1,VO+*%
X118270000Y-57775000D03*
%TD*%
D12*
%TO.P,DRIVER,1*%
%TO.N,N/C*%
X137668000Y-58166000D03*
D21*
%TO.P,DRIVER,2*%
X137668000Y-55626000D03*
%TO.P,DRIVER,3*%
X137668000Y-53086000D03*
%TO.P,DRIVER,4*%
X137668000Y-50546000D03*
%TO.P,DRIVER,5*%
X137668000Y-48006000D03*
%TO.P,DRIVER,6*%
X137668000Y-45466000D03*
%TO.P,DRIVER,7*%
X137668000Y-42926000D03*
%TO.P,DRIVER,8*%
X137668000Y-40386000D03*
%TO.P,DRIVER,9*%
X150368000Y-40386000D03*
%TO.P,DRIVER,10*%
X150368000Y-42926000D03*
%TO.P,DRIVER,11*%
X150368000Y-45466000D03*
%TO.P,DRIVER,12*%
X150368000Y-48006000D03*
%TO.P,DRIVER,13*%
X150368000Y-50546000D03*
%TO.P,DRIVER,14*%
X150368000Y-53086000D03*
%TO.P,DRIVER,15*%
X150368000Y-55626000D03*
%TO.P,DRIVER,16*%
X150368000Y-58166000D03*
%TD*%
D22*
%TO.N,*%
X138884000Y-37858000D02*
X133804000Y-37858000D01*
X133804000Y-50558000D02*
X133804000Y-58178000D01*
X133804000Y-40398000D02*
X137624000Y-40398000D01*
X150324000Y-53098000D02*
X150312000Y-53086000D01*
X138575000Y-60000000D02*
X139390000Y-60000000D01*
X144272000Y-46990000D02*
X144272000Y-56853000D01*
X140075000Y-61050000D02*
X129775000Y-61050000D01*
X133804000Y-42938000D02*
X137624000Y-42938000D01*
X133804000Y-59946000D02*
X133800000Y-59950000D01*
X118270000Y-59945000D02*
X118350000Y-60025000D01*
X148070000Y-50558000D02*
X147066000Y-51562000D01*
X137678000Y-45466000D02*
X137678000Y-48006000D01*
X138884000Y-58178000D02*
X141424000Y-55638000D01*
X148336000Y-60452000D02*
X144513000Y-64275000D01*
X133804000Y-45478000D02*
X133804000Y-42938000D01*
X149606000Y-53086000D02*
X148336000Y-54356000D01*
X133804000Y-58178000D02*
X133804000Y-59946000D01*
X147066000Y-59182000D02*
X143573000Y-62675000D01*
X145784000Y-45478000D02*
X144272000Y-46990000D01*
X143002000Y-44450000D02*
X144514000Y-42938000D01*
X144514000Y-42938000D02*
X150324000Y-42938000D01*
X139390000Y-60000000D02*
X143002000Y-56388000D01*
X150324000Y-48018000D02*
X146570000Y-48018000D01*
X131475000Y-61850000D02*
X129050000Y-64275000D01*
X146570000Y-48018000D02*
X146558000Y-48006000D01*
X141300000Y-61850000D02*
X131475000Y-61850000D01*
X150324000Y-50558000D02*
X148070000Y-50558000D01*
X129775000Y-61050000D02*
X126550000Y-64275000D01*
X145542000Y-49022000D02*
X145542000Y-57608000D01*
X141424000Y-55638000D02*
X141424000Y-40398000D01*
X150312000Y-53086000D02*
X149606000Y-53086000D01*
X143573000Y-62675000D02*
X133150000Y-62675000D01*
X138884000Y-58178000D02*
X137624000Y-58178000D01*
X133841000Y-60000000D02*
X138709000Y-60000000D01*
X147066000Y-51562000D02*
X147066000Y-59182000D01*
X133150000Y-62675000D02*
X131550000Y-64275000D01*
X137624000Y-55638000D02*
X136344000Y-55638000D01*
X150324000Y-45478000D02*
X145784000Y-45478000D01*
X143002000Y-56388000D02*
X143002000Y-44450000D01*
X118270000Y-57775000D02*
X118270000Y-59945000D01*
X144513000Y-64275000D02*
X134050000Y-64275000D01*
X144272000Y-56853000D02*
X140075000Y-61050000D01*
X118537000Y-59998000D02*
X133749000Y-59998000D01*
X148336000Y-54356000D02*
X148336000Y-60452000D01*
X145542000Y-57608000D02*
X141300000Y-61850000D01*
X141424000Y-40398000D02*
X138884000Y-37858000D01*
X136344000Y-55638000D02*
X133804000Y-58178000D01*
X146558000Y-48006000D02*
X145542000Y-49022000D01*
%TD*%
M02*
