M48
; DRILL file {KiCad (6.0.7)} date Thu Sep 22 21:27:13 2022
; FORMAT={-:-/ absolute / inch / decimal}
; #@! TF.CreationDate,2022-09-22T21:27:13+02:00
; #@! TF.GenerationSoftware,Kicad,Pcbnew,(6.0.7)
; #@! TF.FileFunction,Plated,1,2,PTH
FMAT,2
INCH
; #@! TA.AperFunction,Plated,PTH,ComponentDrill
T1C0.0276
; #@! TA.AperFunction,Plated,PTH,ComponentDrill
T2C0.0315
; #@! TA.AperFunction,Plated,PTH,ComponentDrill
T3C0.0374
; #@! TA.AperFunction,Plated,PTH,ComponentDrill
T4C0.0394
%
G90
G05
T1
X4.6563Y-2.2746
X4.7563Y-2.2746
X4.8563Y-2.2746
X4.9563Y-2.2746
T2
X5.42Y-1.59
X5.42Y-1.69
X5.42Y-1.79
X5.42Y-1.89
X5.42Y-1.99
X5.42Y-2.09
X5.42Y-2.19
X5.42Y-2.29
X5.6632Y-1.6417
X5.7616Y-1.6417
X5.92Y-1.59
X5.92Y-1.69
X5.92Y-1.79
X5.92Y-1.89
X5.92Y-1.99
X5.92Y-2.09
X5.92Y-2.19
X5.92Y-2.29
T3
X4.9823Y-2.5305
X5.0807Y-2.5305
X5.1791Y-2.5305
X5.2776Y-2.5305
T4
X4.3679Y-1.2905
X4.3679Y-1.3905
X4.3679Y-1.4905
X4.3679Y-1.5905
X4.3679Y-1.6905
X4.3679Y-1.7905
X4.3679Y-1.8905
X4.3679Y-1.9905
X5.2679Y-1.2905
X5.2679Y-1.3905
X5.2679Y-1.4905
X5.2679Y-1.5905
X5.2679Y-1.6905
X5.2679Y-1.7905
X5.2679Y-1.8905
X5.2679Y-1.9905
X5.42Y-1.33
X5.42Y-1.43
X5.57Y-1.33
X5.57Y-1.43
X5.7716Y-1.36
X5.87Y-1.36
T0
M30
