%TF.GenerationSoftware,KiCad,Pcbnew,(6.0.7)*%
%TF.CreationDate,2022-09-22T21:27:18+02:00*%
%TF.ProjectId,PEQUENAreducida,50455155-454e-4417-9265-647563696461,rev?*%
%TF.SameCoordinates,Original*%
%TF.FileFunction,Copper,L2,Bot*%
%TF.FilePolarity,Positive*%
%FSLAX46Y46*%
G04 Gerber Fmt 4.6, Leading zero omitted, Abs format (unit mm)*
G04 Created by KiCad (PCBNEW (6.0.7)) date 2022-09-22 21:27:18*
%MOMM*%
%LPD*%
G01*
G04 APERTURE LIST*
G04 Aperture macros list*
%AMRoundRect*
0 Rectangle with rounded corners*
0 $1 Rounding radius*
0 $2 $3 $4 $5 $6 $7 $8 $9 X,Y pos of 4 corners*
0 Add a 4 corners polygon primitive as box body*
4,1,4,$2,$3,$4,$5,$6,$7,$8,$9,$2,$3,0*
0 Add four circle primitives for the rounded corners*
1,1,$1+$1,$2,$3*
1,1,$1+$1,$4,$5*
1,1,$1+$1,$6,$7*
1,1,$1+$1,$8,$9*
0 Add four rect primitives between the rounded corners*
20,1,$1+$1,$2,$3,$4,$5,0*
20,1,$1+$1,$4,$5,$6,$7,0*
20,1,$1+$1,$6,$7,$8,$9,0*
20,1,$1+$1,$8,$9,$2,$3,0*%
G04 Aperture macros list end*
%TA.AperFunction,NonConductor*%
%ADD10C,1.000000*%
%TD*%
%TA.AperFunction,ComponentPad*%
%ADD11R,2.000000X2.000000*%
%TD*%
%TA.AperFunction,ComponentPad*%
%ADD12O,2.000000X1.600000*%
%TD*%
%TA.AperFunction,ComponentPad*%
%ADD13R,1.600000X1.600000*%
%TD*%
%TA.AperFunction,ComponentPad*%
%ADD14C,1.600000*%
%TD*%
%TA.AperFunction,ComponentPad*%
%ADD15RoundRect,0.250000X-0.600000X-0.725000X0.600000X-0.725000X0.600000X0.725000X-0.600000X0.725000X0*%
%TD*%
%TA.AperFunction,ComponentPad*%
%ADD16O,1.700000X1.950000*%
%TD*%
%TA.AperFunction,ComponentPad*%
%ADD17RoundRect,0.250000X0.600000X0.750000X-0.600000X0.750000X-0.600000X-0.750000X0.600000X-0.750000X0*%
%TD*%
%TA.AperFunction,ComponentPad*%
%ADD18O,1.700000X2.000000*%
%TD*%
%TA.AperFunction,ComponentPad*%
%ADD19R,1.700000X1.700000*%
%TD*%
%TA.AperFunction,ComponentPad*%
%ADD20O,1.700000X1.700000*%
%TD*%
%TA.AperFunction,ComponentPad*%
%ADD21R,1.930400X1.930400*%
%TD*%
%TA.AperFunction,ComponentPad*%
%ADD22O,1.600000X1.600000*%
%TD*%
%TA.AperFunction,Conductor*%
%ADD23C,1.000000*%
%TD*%
%TA.AperFunction,Conductor*%
%ADD24C,0.500000*%
%TD*%
%TA.AperFunction,Conductor*%
%ADD25C,0.250000*%
%TD*%
G04 APERTURE END LIST*
D10*
X149098000Y-32766000D02*
X149098000Y-34544000D01*
X123421000Y-60375000D02*
X123400000Y-57700000D01*
X141500000Y-61975000D02*
X134552000Y-61975000D01*
X134475000Y-61975000D02*
X132825000Y-60400000D01*
X149098000Y-34544000D02*
X148336000Y-37084000D01*
X143764000Y-32766000D02*
X149098000Y-32766000D01*
X132675000Y-60400000D02*
X123450000Y-60400000D01*
X148336000Y-40386000D02*
X150368000Y-40386000D01*
X148336000Y-55880000D02*
X150368000Y-55880000D01*
X148336000Y-37084000D02*
X148336000Y-55880000D01*
D11*
%TO.P,WEMOS D1,1*%
%TO.N,N/C*%
X110944000Y-32778000D03*
D12*
%TO.P,WEMOS D1,2*%
X110944000Y-35318000D03*
%TO.P,WEMOS D1,3*%
X110944000Y-37858000D03*
%TO.P,WEMOS D1,4*%
X110944000Y-40398000D03*
%TO.P,WEMOS D1,5*%
X110944000Y-42938000D03*
%TO.P,WEMOS D1,6*%
X110944000Y-45478000D03*
%TO.P,WEMOS D1,7*%
X110944000Y-48018000D03*
%TO.P,WEMOS D1,8*%
X110944000Y-50558000D03*
%TO.P,WEMOS D1,9*%
X133804000Y-50558000D03*
%TO.P,WEMOS D1,10*%
X133804000Y-48018000D03*
%TO.P,WEMOS D1,11*%
X133804000Y-45478000D03*
%TO.P,WEMOS D1,12*%
X133804000Y-42938000D03*
%TO.P,WEMOS D1,13*%
X133804000Y-40398000D03*
%TO.P,WEMOS D1,14*%
X133804000Y-37858000D03*
%TO.P,WEMOS D1,15*%
X133804000Y-35318000D03*
%TO.P,WEMOS D1,16*%
X133804000Y-32778000D03*
%TD*%
D13*
%TO.P,35V100mf,1*%
%TO.N,N/C*%
X143844888Y-41700000D03*
D14*
%TO.P,35V100mf,2*%
X146344888Y-41700000D03*
%TD*%
D15*
%TO.P,MOTOR,1*%
%TO.N,N/C*%
X126550000Y-64275000D03*
D16*
%TO.P,MOTOR,2*%
X129050000Y-64275000D03*
%TO.P,MOTOR,3*%
X131550000Y-64275000D03*
%TO.P,MOTOR,4*%
X134050000Y-64275000D03*
%TD*%
D17*
%TO.P,- 24V +,1*%
%TO.N,N/C*%
X149098000Y-34544000D03*
D18*
%TO.P,- 24V +,2*%
X146598000Y-34544000D03*
%TD*%
D19*
%TO.P,J2,1*%
%TO.N,N/C*%
X137668000Y-33782000D03*
D20*
%TO.P,J2,2*%
X137668000Y-36322000D03*
%TD*%
D19*
%TO.P,J1,1*%
%TO.N,N/C*%
X141478000Y-33782000D03*
D20*
%TO.P,J1,2*%
X141478000Y-36322000D03*
%TD*%
D21*
%TO.P,WEMOS D1,EN*%
%TO.N,N/C*%
X125890000Y-57775000D03*
%TO.P,WEMOS D1,GND*%
X120810000Y-57775000D03*
%TO.P,WEMOS D1,IN+*%
X123350000Y-57775000D03*
%TO.P,WEMOS D1,VO+*%
X118270000Y-57775000D03*
%TD*%
D13*
%TO.P,DRIVER,1*%
%TO.N,N/C*%
X137668000Y-58166000D03*
D22*
%TO.P,DRIVER,2*%
X137668000Y-55626000D03*
%TO.P,DRIVER,3*%
X137668000Y-53086000D03*
%TO.P,DRIVER,4*%
X137668000Y-50546000D03*
%TO.P,DRIVER,5*%
X137668000Y-48006000D03*
%TO.P,DRIVER,6*%
X137668000Y-45466000D03*
%TO.P,DRIVER,7*%
X137668000Y-42926000D03*
%TO.P,DRIVER,8*%
X137668000Y-40386000D03*
%TO.P,DRIVER,9*%
X150368000Y-40386000D03*
%TO.P,DRIVER,10*%
X150368000Y-42926000D03*
%TO.P,DRIVER,11*%
X150368000Y-45466000D03*
%TO.P,DRIVER,12*%
X150368000Y-48006000D03*
%TO.P,DRIVER,13*%
X150368000Y-50546000D03*
%TO.P,DRIVER,14*%
X150368000Y-53086000D03*
%TO.P,DRIVER,15*%
X150368000Y-55626000D03*
%TO.P,DRIVER,16*%
X150368000Y-58166000D03*
%TD*%
D23*
%TO.N,*%
X120875000Y-56200000D02*
X120875000Y-57710000D01*
D24*
X135890000Y-33782000D02*
X141478000Y-33782000D01*
X140704000Y-53098000D02*
X141478000Y-52324000D01*
D23*
X135434000Y-60250000D02*
X136100000Y-60250000D01*
X145808000Y-58178000D02*
X150324000Y-58178000D01*
D24*
X139688000Y-50558000D02*
X140208000Y-50038000D01*
X137624000Y-50558000D02*
X139688000Y-50558000D01*
X135890000Y-48514000D02*
X135890000Y-33782000D01*
D23*
X120875000Y-56200000D02*
X121449000Y-55626000D01*
X121449000Y-55626000D02*
X130810000Y-55626000D01*
D25*
X133338000Y-48018000D02*
X133804000Y-48018000D01*
D24*
X141478000Y-52324000D02*
X141478000Y-36322000D01*
D23*
X141579000Y-61875000D02*
X141550000Y-61875000D01*
X120875000Y-57710000D02*
X120810000Y-57775000D01*
X146250000Y-58125000D02*
X145329000Y-58125000D01*
X130810000Y-55626000D02*
X135434000Y-60250000D01*
D24*
X140208000Y-38862000D02*
X137668000Y-36322000D01*
X137624000Y-53098000D02*
X140704000Y-53098000D01*
D23*
X145329000Y-58125000D02*
X141579000Y-61875000D01*
X135375000Y-60200000D02*
X139750000Y-60200000D01*
X143764000Y-56134000D02*
X143764000Y-33020000D01*
X139750000Y-60200000D02*
X143675000Y-56275000D01*
X130810000Y-50546000D02*
X130810000Y-55626000D01*
X146304000Y-34801000D02*
X146304000Y-57682000D01*
X146578000Y-34527000D02*
X146304000Y-34801000D01*
D24*
X140208000Y-50038000D02*
X140208000Y-38862000D01*
X133804000Y-50558000D02*
X133846000Y-50558000D01*
D23*
X133338000Y-48018000D02*
X130810000Y-50546000D01*
X141550000Y-61875000D02*
X141525000Y-61850000D01*
D24*
X133846000Y-50558000D02*
X135890000Y-48514000D01*
D23*
X146304000Y-57682000D02*
X145808000Y-58178000D01*
%TD*%
M02*
